<svg width="914" height="32" viewBox="0 0 914 32" fill="none" xmlns="http://www.w3.org/2000/svg">
<path d="M6.61067 3.2788C5.95347 3.2788 5.60554 3.24014 5.56688 3.16282C5.54755 3.12417 5.53788 3.04685 5.53788 2.93087C5.53788 2.46696 5.6442 2.14803 5.85682 1.97406C5.89548 1.95473 6.04045 1.94507 6.29173 1.94507C7.33552 2.00306 8.56294 2.03205 9.97399 2.03205C12.6994 2.03205 14.2651 2.00306 14.671 1.94507H15.019C15.135 2.06105 15.1929 2.14803 15.1929 2.20602C15.1929 2.26401 15.1736 2.43797 15.135 2.72791C15.0383 3.01785 14.9513 3.20148 14.874 3.2788H13.7722C12.4385 3.29813 11.6557 3.38511 11.4237 3.53975C11.2884 3.61707 11.1531 3.88768 11.0178 4.35159C10.8825 4.81549 10.2349 7.36698 9.07517 12.006C8.7659 13.2625 8.4373 14.5962 8.08937 16.0072C7.74144 17.4183 7.48049 18.4814 7.30653 19.1966L7.04558 20.2404C7.04558 20.3177 7.13256 20.3564 7.30653 20.3564C7.48049 20.3564 8.05071 20.3757 9.01718 20.4144H9.51008C10.1286 20.4144 10.6215 20.4047 10.9888 20.3854C11.356 20.366 11.8296 20.2984 12.4095 20.1824C12.9894 20.0664 13.4726 19.8925 13.8592 19.6605C14.2458 19.4286 14.671 19.1 15.135 18.6747C15.5989 18.2495 16.0048 17.7179 16.3527 17.08C16.662 16.5001 16.9519 15.8526 17.2225 15.1374C17.4931 14.4222 17.6574 14.0163 17.7154 13.9197C17.8121 13.8617 17.9764 13.8327 18.2083 13.8327H18.5853C18.7012 14.0066 18.7592 14.113 18.7592 14.1516C18.7592 14.1903 18.5659 14.7605 18.1793 15.8623C17.7928 16.964 17.3675 18.1238 16.9036 19.3416C16.4397 20.5593 16.1884 21.2745 16.1497 21.4871C16.1111 21.5838 16.0724 21.6418 16.0338 21.6611C15.9951 21.6804 15.8405 21.7094 15.5699 21.7481C15.2993 21.7867 14.8837 21.7964 14.3231 21.7771C14.1105 21.7771 13.376 21.7771 12.1196 21.7771C10.8631 21.7771 9.66472 21.7674 8.52428 21.7481H3.36332C1.73965 21.7481 0.927811 21.6514 0.927811 21.4581C0.927811 21.3228 0.94714 21.1875 0.985799 21.0522C1.08245 20.685 1.17909 20.482 1.27574 20.4433C1.35306 20.424 1.49803 20.4144 1.71065 20.4144H1.88462C2.40651 20.4144 2.9864 20.3854 3.62427 20.3274C3.89488 20.2694 4.07851 20.1534 4.17516 19.9794C4.23315 19.9021 4.92901 17.2153 6.26274 11.9191C7.59647 6.62279 8.26333 3.82969 8.26333 3.53975C8.26333 3.40444 7.71245 3.31746 6.61067 3.2788Z" fill="black"/>
<path d="M22.4705 14.4996C22.4705 13.1659 22.5671 11.8998 22.7604 10.7014C22.9537 9.50296 23.176 8.46884 23.4273 7.59901C23.6786 6.72919 24.0362 5.87869 24.5001 5.04753C24.964 4.21636 25.3312 3.56882 25.6018 3.10492C25.8725 2.64101 26.2784 2.13844 26.8196 1.59722C27.3608 1.056 27.6798 0.727395 27.7764 0.611418C27.8731 0.495441 28.1147 0.292482 28.5013 0.0025406H28.8782H28.9942C29.2648 0.0025406 29.4001 0.0895231 29.4001 0.263488C29.4001 0.321476 29.2358 0.524436 28.9072 0.872366C28.5786 1.2203 28.1823 1.73253 27.7184 2.40906C27.2545 3.08559 26.7809 3.91675 26.2977 4.90255C25.8145 5.88836 25.4085 7.22209 25.0799 8.90375C24.7513 10.5854 24.587 12.4507 24.587 14.4996C24.587 16.5485 24.7513 18.4042 25.0799 20.0665C25.4085 21.7288 25.8048 23.0722 26.2687 24.0967C26.7326 25.1212 27.2062 25.9523 27.6894 26.5902C28.1727 27.2281 28.5786 27.7403 28.9072 28.1269C29.2358 28.5135 29.4001 28.7164 29.4001 28.7358C29.4001 28.9097 29.2551 28.9967 28.9652 28.9967H28.8782H28.5013L27.6894 28.3008C25.8725 26.6578 24.5484 24.6089 23.7172 22.1541C22.8861 19.6992 22.4705 17.1478 22.4705 14.4996Z" fill="black"/>
<path d="M32.5314 13.3688C32.6668 12.5569 33.1886 11.6195 34.0971 10.5563C35.0056 9.49321 36.1267 8.95199 37.4605 8.93266C38.137 8.93266 38.7555 9.10662 39.3161 9.45455C39.8766 9.80248 40.2922 10.2374 40.5628 10.7593C41.3747 9.54154 42.3508 8.93266 43.4912 8.93266C44.2064 8.93266 44.825 9.14528 45.3469 9.57053C45.8688 9.99578 46.1394 10.566 46.1587 11.2812C46.1587 11.8417 46.0234 12.296 45.7528 12.6439C45.4822 12.9918 45.2212 13.2045 44.9699 13.2818C44.7187 13.3591 44.4964 13.3978 44.3031 13.3978C43.9358 13.3978 43.6362 13.2914 43.4043 13.0788C43.1723 12.8662 43.0563 12.5859 43.0563 12.238C43.0563 11.3488 43.5396 10.74 44.506 10.4114C44.2934 10.1601 43.9068 10.0344 43.3463 10.0344C43.095 10.0344 42.9114 10.0538 42.7954 10.0924C42.0609 10.4017 41.5196 11.0396 41.1717 12.006C40.0119 16.2778 39.4321 18.7713 39.4321 19.4865C39.4321 20.0278 39.5867 20.4143 39.896 20.6463C40.2052 20.8783 40.5435 20.9942 40.9108 20.9942C41.6259 20.9942 42.3315 20.6753 43.0273 20.0374C43.7232 19.3996 44.1968 18.6167 44.448 17.6889C44.506 17.4956 44.564 17.3893 44.622 17.37C44.68 17.3506 44.8346 17.3313 45.0859 17.312H45.2019C45.4918 17.312 45.6368 17.3893 45.6368 17.5439C45.6368 17.5633 45.6175 17.6696 45.5788 17.8629C45.2695 18.9646 44.6703 19.9408 43.7812 20.7913C42.892 21.6418 41.8579 22.067 40.6788 22.067C39.3257 22.067 38.3013 21.4581 37.6054 20.2404C36.8129 21.4388 35.9044 22.038 34.88 22.038H34.706C33.7589 22.038 33.0823 21.7867 32.6764 21.2842C32.2705 20.7816 32.0579 20.25 32.0385 19.6895C32.0385 19.071 32.2222 18.5684 32.5894 18.1818C32.9567 17.7952 33.3916 17.6019 33.8942 17.6019C34.7253 17.6019 35.1409 18.0078 35.1409 18.8197C35.1409 19.2063 35.0249 19.5445 34.793 19.8345C34.561 20.1244 34.3387 20.3177 34.1261 20.4143C33.9135 20.511 33.7879 20.5593 33.7492 20.5593L33.6622 20.5883C33.6622 20.6076 33.7202 20.6463 33.8362 20.7043C33.9522 20.7623 34.1068 20.8299 34.3001 20.9072C34.4934 20.9846 34.677 21.0136 34.851 20.9942C35.5468 20.9942 36.1461 20.5593 36.6486 19.6895C36.8226 19.3802 37.0449 18.723 37.3155 17.7179C37.5861 16.7128 37.8567 15.669 38.1273 14.5865C38.3979 13.5041 38.5526 12.8662 38.5912 12.6729C38.6879 12.151 38.7362 11.7741 38.7362 11.5421C38.7362 11.0009 38.5912 10.6143 38.3013 10.3824C38.0113 10.1504 37.6827 10.0344 37.3155 10.0344C36.5423 10.0344 35.8174 10.3437 35.1409 10.9623C34.4644 11.5808 33.9908 12.3733 33.7202 13.3398C33.6815 13.5137 33.6332 13.6104 33.5752 13.6297C33.5172 13.649 33.3626 13.6684 33.1113 13.6877H32.7054C32.5894 13.5717 32.5314 13.4654 32.5314 13.3688Z" fill="black"/>
<path d="M49.87 20.7333C49.87 20.7333 49.87 20.4917 49.87 20.0085C49.87 19.5252 50.0246 19.1096 50.3339 18.7617C50.6431 18.4138 51.0587 18.2398 51.5806 18.2398C52.1218 18.2398 52.6051 18.4814 53.0303 18.9647C53.4556 19.4479 53.6779 20.2984 53.6972 21.5162C53.6972 22.1927 53.6102 22.8499 53.4362 23.4878C53.2623 24.1256 53.0593 24.6765 52.8274 25.1404C52.5954 25.6043 52.3441 26.0006 52.0735 26.3292C51.8029 26.6578 51.571 26.9187 51.3777 27.112C51.1844 27.3053 51.0587 27.3923 51.0007 27.373C50.9234 27.373 50.7978 27.286 50.6238 27.112C50.4498 26.9381 50.3629 26.8124 50.3629 26.7351C50.3629 26.6578 50.4692 26.5031 50.6818 26.2712C50.8944 26.0392 51.136 25.7493 51.4067 25.4014C51.6773 25.0534 51.9286 24.5702 52.1605 23.9517C52.3925 23.3331 52.5471 22.6276 52.6244 21.8351V21.4872L52.5954 21.5162C52.5568 21.5355 52.5084 21.5548 52.4504 21.5741C52.3925 21.5935 52.3345 21.6225 52.2765 21.6611C52.2185 21.6998 52.1315 21.7191 52.0155 21.7191C51.8996 21.7191 51.7836 21.7288 51.6676 21.7481C51.1457 21.7481 50.7205 21.5838 50.3919 21.2552L49.87 20.7333Z" fill="black"/>
<path d="M61.111 13.4268C61.111 13.1562 61.256 12.6922 61.5459 12.035C61.8358 11.3778 62.2998 10.6916 62.9376 9.97646C63.5755 9.26127 64.2907 8.91334 65.0832 8.93267C65.8757 8.93267 66.5136 9.15496 66.9968 9.59954C67.48 10.0441 67.7313 10.6627 67.7507 11.4552C67.712 11.8224 67.683 12.0254 67.6637 12.064C67.6637 12.122 67.509 12.5666 67.1998 13.3978C66.8905 14.2289 66.5716 15.1664 66.243 16.2102C65.9144 17.254 65.7597 18.0852 65.7791 18.7037C65.7791 19.5349 65.9144 20.1148 66.185 20.4434C66.4556 20.772 66.8615 20.9459 67.4027 20.9652C67.8473 20.9652 68.2629 20.8589 68.6495 20.6463C69.0361 20.4337 69.3357 20.2114 69.5483 19.9794C69.7609 19.7475 70.0219 19.4286 70.3311 19.0226C70.3311 19.0033 70.3795 18.81 70.4761 18.4428C70.5728 18.0755 70.7081 17.5053 70.882 16.7321C71.056 15.9589 71.2396 15.2437 71.4329 14.5865C72.1674 11.6871 72.5734 10.1698 72.6507 10.0344C72.902 9.51255 73.3175 9.25161 73.8974 9.25161C74.1487 9.25161 74.3517 9.31926 74.5063 9.45457C74.6609 9.58987 74.7672 9.70585 74.8252 9.8025C74.8832 9.89914 74.9026 9.98613 74.8832 10.0634C74.8832 10.3147 74.4096 12.3443 73.4625 16.1522C72.5154 19.9601 71.9741 22.0477 71.8388 22.415C71.2976 24.0193 70.3601 25.295 69.0264 26.2422C67.6927 27.1893 66.3589 27.6726 65.0252 27.6919C64.1554 27.6919 63.3919 27.4793 62.7347 27.054C62.0775 26.6288 61.7489 25.9909 61.7489 25.1404C61.7489 24.7152 61.8165 24.3576 61.9518 24.0676C62.0871 23.7777 62.2708 23.5651 62.5027 23.4298C62.7347 23.2944 62.928 23.1978 63.0826 23.1398C63.2372 23.0818 63.4015 23.0528 63.5755 23.0528C64.426 23.0528 64.8512 23.4587 64.8512 24.2706C64.8512 24.6572 64.7353 24.9954 64.5033 25.2854C64.2714 25.5753 64.0491 25.7686 63.8364 25.8653C63.6238 25.9619 63.4982 26.0102 63.4595 26.0102L63.3725 26.0392C63.4112 26.1359 63.5948 26.2519 63.9234 26.3872C64.252 26.5225 64.5806 26.5901 64.9092 26.5901H65.1412C65.4698 26.5901 65.7211 26.5708 65.895 26.5321C66.5329 26.3582 67.1224 25.9909 67.6637 25.4303C68.2049 24.8698 68.6205 24.2706 68.9104 23.6327C69.2004 22.9948 69.4227 22.4536 69.5773 22.009C69.7319 21.5645 69.8092 21.2745 69.8092 21.1392L69.6353 21.2552C69.5193 21.3325 69.3357 21.4388 69.0844 21.5741C68.8331 21.7094 68.5818 21.8254 68.3305 21.9221C67.944 22.0187 67.567 22.067 67.1998 22.067C66.3106 22.067 65.5278 21.8544 64.8512 21.4292C64.1747 21.0039 63.7301 20.3177 63.5175 19.3706C63.4982 19.2353 63.4885 18.9357 63.4885 18.4718C63.4885 17.37 63.8268 15.9299 64.5033 14.1516C65.1798 12.3733 65.5181 11.2425 65.5181 10.7593C65.5181 10.74 65.5181 10.7206 65.5181 10.7013C65.5181 10.5273 65.5181 10.4114 65.5181 10.3534C65.5181 10.2954 65.4794 10.2277 65.4021 10.1504C65.3248 10.0731 65.2185 10.0344 65.0832 10.0344H64.9672C64.5226 10.0344 64.1167 10.2181 63.7495 10.5853C63.3822 10.9526 63.0923 11.3489 62.8796 11.7741C62.667 12.1993 62.5027 12.6053 62.3867 12.9919C62.2708 13.3784 62.1934 13.5911 62.1548 13.6297C62.1161 13.6684 61.9615 13.6877 61.6909 13.6877H61.285C61.169 13.5717 61.111 13.4848 61.111 13.4268Z" fill="black"/>
<path d="M76.4489 0.0315348L76.5649 0.0025406C76.6615 0.0025406 76.7582 0.0025406 76.8548 0.0025406H77.2028L78.0146 0.698401C79.8316 2.3414 81.1556 4.39032 81.9868 6.84516C82.818 9.3 83.2335 11.8515 83.2335 14.4996C83.2335 15.814 83.1369 17.0801 82.9436 18.2979C82.7503 19.5156 82.528 20.5497 82.2767 21.4002C82.0255 22.2507 81.6679 23.1012 81.204 23.9517C80.74 24.8022 80.3728 25.4498 80.1022 25.8943C79.8316 26.3389 79.4353 26.8318 78.9134 27.373C78.3915 27.9143 78.0822 28.2332 77.9856 28.3298C77.889 28.4265 77.6667 28.6101 77.3187 28.8807C77.2607 28.9387 77.2221 28.9774 77.2028 28.9967H76.8548C76.7002 28.9967 76.5939 28.9967 76.5359 28.9967C76.4779 28.9967 76.4296 28.9677 76.3909 28.9097C76.3523 28.8517 76.3233 28.7648 76.3039 28.6488C76.3233 28.6294 76.4296 28.5038 76.6229 28.2719C79.6189 25.1598 81.117 20.5691 81.117 14.4996C81.117 8.43018 79.6189 3.83943 76.6229 0.727395C76.4296 0.495441 76.3233 0.3698 76.3039 0.350471C76.3039 0.195835 76.3523 0.0895231 76.4489 0.0315348Z" fill="black"/>
<path d="M95.6633 11.6871C95.6633 11.4358 95.7986 11.2425 96.0692 11.1072H114.539C114.828 11.2618 114.973 11.4551 114.973 11.6871C114.973 11.8997 114.838 12.0833 114.568 12.238L105.347 12.267H96.1272C95.818 12.1703 95.6633 11.977 95.6633 11.6871ZM95.6633 17.312C95.6633 17.022 95.818 16.8287 96.1272 16.7321H114.568C114.838 16.9254 114.973 17.1187 114.973 17.312C114.973 17.5632 114.828 17.7565 114.539 17.8918H96.0692C95.7986 17.7565 95.6633 17.5632 95.6633 17.312Z" fill="black"/>
<path d="M116.945 2.43799C116.945 2.26403 117.061 2.09973 117.293 1.94509H133.472C133.626 2.00308 133.733 2.10939 133.791 2.26403V4.69954C133.791 6.12992 133.771 6.96108 133.733 7.19304C133.694 7.42499 133.539 7.54097 133.269 7.54097C133.114 7.54097 132.998 7.49264 132.921 7.396C132.844 7.29935 132.766 7.08672 132.689 6.75812C132.631 6.00428 132.264 5.29875 131.587 4.64155C130.988 4.00368 130.292 3.57843 129.5 3.36581C128.707 3.15318 127.692 3.01788 126.455 2.95989H124.773C124.464 3.19184 124.29 3.46245 124.252 3.77173C124.213 4.081 124.174 5.31808 124.136 7.48298V11.0203H124.629C125.634 10.9236 126.416 10.7207 126.977 10.4114C127.538 10.1021 127.982 9.63821 128.311 9.01967C128.62 8.22716 128.775 7.57963 128.775 7.07706C128.775 6.63248 128.929 6.41019 129.239 6.41019C129.413 6.41019 129.558 6.48751 129.674 6.64215C129.751 6.71947 129.789 8.26582 129.789 11.2812C129.789 11.8224 129.789 12.4313 129.789 13.1078C129.789 13.7844 129.799 14.2193 129.818 14.4126C129.818 15.1084 129.789 15.553 129.731 15.7463C129.674 15.9396 129.519 16.0363 129.268 16.0363C128.939 16.0556 128.775 15.8623 128.775 15.4564C128.775 15.0118 128.639 14.4996 128.369 13.9197C127.808 12.7986 126.629 12.1704 124.831 12.0351H124.136V15.9203C124.155 16.4422 124.165 17.0897 124.165 17.8629C124.184 19.042 124.213 19.7475 124.252 19.9795C124.29 20.2114 124.426 20.4337 124.658 20.6463C124.716 20.685 124.754 20.714 124.773 20.7333H126.194C127.528 20.7333 128.668 20.5883 129.616 20.2984C131.974 19.4672 133.452 18.2205 134.052 16.5582C134.11 16.0942 134.303 15.8623 134.632 15.8623C134.767 15.8623 134.883 15.9203 134.979 16.0363C135.076 16.1522 135.134 16.2875 135.153 16.4422C135.115 16.4808 134.96 17.3313 134.689 18.9937C134.419 20.656 134.226 21.5451 134.11 21.6611L133.994 21.7771H117.293C117.061 21.6611 116.945 21.4968 116.945 21.2842C116.945 20.9169 117.322 20.7333 118.076 20.7333C118.868 20.6753 119.313 20.511 119.41 20.2404C119.506 20.0858 119.555 17.2927 119.555 11.8611C119.555 6.42952 119.506 3.61709 119.41 3.4238C119.294 3.17251 118.849 3.01788 118.076 2.95989C117.322 2.95989 116.945 2.78592 116.945 2.43799ZM120.569 11.8611C120.569 15.9203 120.56 18.3558 120.54 19.1676C120.521 19.9795 120.463 20.482 120.366 20.6753C120.347 20.6947 120.337 20.714 120.337 20.7333H123.411C123.372 20.6173 123.333 20.4917 123.295 20.3564L123.15 19.9795V3.68474L123.295 3.33681L123.411 2.95989H120.337C120.395 3.09519 120.434 3.19184 120.453 3.24983C120.473 3.30782 120.492 3.64608 120.511 4.26463C120.531 4.88317 120.55 5.71433 120.569 6.75812C120.589 7.80191 120.589 9.5029 120.569 11.8611ZM132.747 4.26463V2.95989H131.21C131.21 2.99855 131.317 3.08553 131.529 3.22084C131.761 3.31748 132.022 3.51078 132.312 3.80072L132.747 4.26463ZM128.775 12.557V10.2374L128.369 10.6433C128.137 10.8946 127.886 11.0879 127.615 11.2232L127.209 11.4552C127.344 11.5518 127.499 11.6388 127.673 11.7161C128.021 11.9674 128.282 12.1414 128.456 12.238L128.775 12.557ZM133.472 19.9795L133.588 19.1966C133.568 19.1966 133.53 19.2449 133.472 19.3416C132.989 19.7668 132.447 20.1244 131.848 20.4144L131.413 20.6753L132.312 20.7333H133.327C133.327 20.714 133.336 20.6753 133.356 20.6173C133.375 20.5593 133.394 20.4627 133.414 20.3274C133.433 20.1921 133.452 20.0761 133.472 19.9795Z" fill="black"/>
<path d="M139.708 14.572C139.708 14.244 139.838 13.957 140.098 13.711C140.357 13.4651 140.658 13.3352 140.999 13.3216C141.245 13.3216 141.45 13.4036 141.614 13.5675C141.778 13.7315 141.867 13.9365 141.881 14.1825C141.881 14.4968 141.744 14.7838 141.471 15.0435C141.198 15.3031 140.897 15.4398 140.569 15.4534C140.364 15.4534 140.173 15.3851 139.995 15.2485C139.817 15.1118 139.722 14.8863 139.708 14.572ZM136.367 20.9881C136.367 20.8788 136.428 20.667 136.551 20.3527C136.674 20.0384 136.838 19.6899 137.043 19.3072C137.248 18.9246 137.549 18.5761 137.945 18.2618C138.341 17.9475 138.751 17.7971 139.175 17.8108C139.708 17.8108 140.152 17.968 140.508 18.2823C140.863 18.5966 141.047 19.0202 141.061 19.5532C141.061 19.7855 140.965 20.1682 140.774 20.7012C140.583 21.2341 140.309 21.9516 139.954 22.8535C139.599 23.7555 139.312 24.5276 139.093 25.1699C139.025 25.4706 138.991 25.6892 138.991 25.8259C138.991 26.1675 139.107 26.3383 139.339 26.3383C139.462 26.3383 139.592 26.3178 139.729 26.2768C139.865 26.2358 140.022 26.1402 140.2 25.9899C140.378 25.8395 140.562 25.6004 140.753 25.2724C140.945 24.9444 141.116 24.5413 141.266 24.063C141.307 23.899 141.341 23.8033 141.368 23.776C141.396 23.7487 141.512 23.735 141.717 23.735C141.99 23.735 142.127 23.8033 142.127 23.94C142.127 24.0493 142.065 24.2611 141.942 24.5754C141.819 24.8898 141.649 25.2382 141.43 25.6209C141.211 26.0035 140.904 26.3452 140.508 26.6458C140.111 26.9465 139.688 27.0968 139.237 27.0968C138.799 27.0968 138.396 26.9533 138.027 26.6663C137.658 26.3793 137.467 25.942 137.453 25.3544C137.453 25.1221 137.487 24.9034 137.556 24.6984C137.624 24.4934 137.918 23.7145 138.437 22.3616C138.956 20.9813 139.257 20.1545 139.339 19.8812C139.421 19.6079 139.469 19.3414 139.483 19.0817C139.483 18.7538 139.366 18.5898 139.134 18.5898H139.093C138.683 18.5898 138.307 18.8153 137.966 19.2662C137.624 19.7172 137.364 20.2912 137.187 20.9881C137.173 21.0018 137.159 21.0223 137.146 21.0496C137.132 21.077 137.125 21.0975 137.125 21.1111C137.125 21.1248 137.112 21.1385 137.084 21.1521C137.057 21.1658 137.036 21.1726 137.023 21.1726C137.009 21.1726 136.982 21.1726 136.941 21.1726C136.9 21.1726 136.845 21.1726 136.777 21.1726H136.49C136.408 21.0906 136.367 21.0291 136.367 20.9881Z" fill="black"/>
<path d="M144.136 23.4686C144.136 22.4436 144.45 21.5007 145.079 20.6397C145.707 19.7788 146.534 19.3483 147.559 19.3483C148.078 19.3483 148.584 19.4713 149.076 19.7173C149.568 19.9632 150.019 20.2707 150.429 20.6397C150.839 21.0087 151.242 21.364 151.638 21.7057C152.035 22.0473 152.465 22.348 152.93 22.6076C153.394 22.8673 153.873 22.9971 154.365 22.9971C155.212 22.9971 155.902 22.6759 156.435 22.0336C156.968 21.3913 157.235 20.6944 157.235 19.9428C157.235 19.7788 157.262 19.6421 157.317 19.5328C157.371 19.4234 157.44 19.3619 157.522 19.3483C157.713 19.3483 157.809 19.5738 157.809 20.0247C157.809 21.036 157.501 21.9721 156.886 22.8331C156.271 23.694 155.485 24.1245 154.529 24.1245H154.365C153.859 24.1245 153.36 24.0015 152.868 23.7555C152.376 23.5096 151.919 23.2089 151.495 22.8536C151.071 22.4983 150.668 22.143 150.285 21.7876C149.903 21.4323 149.472 21.1249 148.994 20.8652C148.516 20.6055 148.044 20.4826 147.58 20.4962C146.978 20.4962 146.445 20.667 145.981 21.0087C145.489 21.405 145.154 21.8696 144.976 22.4026C144.799 22.9356 144.689 23.3592 144.648 23.6735C144.607 23.9879 144.532 24.145 144.423 24.145C144.231 24.145 144.136 23.9195 144.136 23.4686Z" fill="black"/>
<path d="M159.428 20.9882C159.442 20.9472 159.455 20.8925 159.469 20.8242C159.483 20.7559 159.517 20.6055 159.571 20.3732C159.626 20.1409 159.694 19.9291 159.776 19.7378C159.858 19.5464 159.961 19.3209 160.084 19.0613C160.207 18.8016 160.344 18.5967 160.494 18.4463C160.644 18.296 160.822 18.1457 161.027 17.9954C161.232 17.845 161.457 17.7835 161.703 17.8109C162.728 17.8109 163.384 18.2482 163.671 19.1228L163.876 18.9383C164.724 18.1867 165.53 17.8109 166.295 17.8109C167.183 17.8109 167.88 18.132 168.386 18.7743C168.892 19.4166 169.144 20.1956 169.144 21.1112C169.144 22.5871 168.625 23.9469 167.587 25.1905C166.548 26.4341 165.373 27.0627 164.061 27.0764C163.76 27.0764 163.494 27.0354 163.261 26.9534C163.111 26.885 162.954 26.7825 162.79 26.6459C162.626 26.5092 162.496 26.3931 162.4 26.2974L162.257 26.1334C162.243 26.1471 162.093 26.7415 161.806 27.9168C161.519 29.0921 161.375 29.6865 161.375 29.7002C161.375 29.7822 161.43 29.83 161.539 29.8437C161.649 29.8574 161.902 29.8779 162.298 29.9052H162.81C162.892 30.0009 162.933 30.0624 162.933 30.0897C162.933 30.117 162.913 30.24 162.872 30.4587C162.831 30.6227 162.79 30.7252 162.749 30.7661C162.708 30.8071 162.619 30.8345 162.482 30.8481C162.455 30.8481 162.38 30.8481 162.257 30.8481C162.134 30.8481 161.902 30.8413 161.56 30.8276C161.218 30.814 160.795 30.8071 160.289 30.8071C159.332 30.8071 158.724 30.8208 158.465 30.8481H158.301C158.205 30.7525 158.157 30.6773 158.157 30.6227C158.184 30.2537 158.273 30.0145 158.424 29.9052H158.834C159.298 29.8915 159.565 29.8095 159.633 29.6592C159.674 29.5772 160.091 27.9441 160.883 24.76C161.676 21.5758 162.093 19.8881 162.134 19.6968C162.147 19.6284 162.154 19.5328 162.154 19.4098C162.154 18.8495 161.983 18.5693 161.642 18.5693C161.341 18.5693 161.088 18.7606 160.883 19.1433C160.678 19.5259 160.521 19.9427 160.412 20.3937C160.303 20.8447 160.221 21.0907 160.166 21.1317C160.139 21.159 160.029 21.1727 159.838 21.1727H159.551C159.469 21.0907 159.428 21.0292 159.428 20.9882ZM162.605 24.7805C162.906 25.8191 163.412 26.3384 164.122 26.3384C164.532 26.3384 164.929 26.1812 165.311 25.8669C165.694 25.5526 166.008 25.1563 166.254 24.678C166.5 24.2133 166.746 23.4754 166.992 22.4641C167.238 21.4528 167.368 20.7012 167.382 20.2092V20.0862C167.382 19.075 166.965 18.5693 166.131 18.5693C165.981 18.5693 165.83 18.5898 165.68 18.6308C165.53 18.6718 165.379 18.7333 165.229 18.8153C165.079 18.8973 164.942 18.9861 164.819 19.0818C164.696 19.1775 164.58 19.2799 164.471 19.3893C164.361 19.4986 164.259 19.6011 164.163 19.6968C164.068 19.7924 163.992 19.8881 163.938 19.9837C163.883 20.0794 163.828 20.1477 163.774 20.1887L163.712 20.2707C163.712 20.2844 163.692 20.3801 163.651 20.5577C163.61 20.7354 163.535 21.036 163.425 21.4597C163.316 21.8833 163.22 22.2386 163.138 22.5256C162.783 23.9742 162.605 24.7258 162.605 24.7805Z" fill="black"/>
<path d="M171.194 21.7467C171.194 20.8037 171.263 19.9086 171.399 19.0613C171.536 18.214 171.693 17.4829 171.871 16.8679C172.048 16.253 172.301 15.6517 172.629 15.064C172.957 14.4764 173.217 14.0186 173.408 13.6906C173.6 13.3626 173.886 13.0073 174.269 12.6247C174.652 12.242 174.877 12.0097 174.946 11.9277C175.014 11.8457 175.185 11.7022 175.458 11.4972H175.725H175.807C175.998 11.4972 176.094 11.5587 176.094 11.6817C176.094 11.7227 175.977 11.8662 175.745 12.1122C175.513 12.3582 175.233 12.7203 174.905 13.1986C174.577 13.6769 174.242 14.2646 173.9 14.9615C173.559 15.6585 173.272 16.6014 173.039 17.7904C172.807 18.9793 172.691 20.2981 172.691 21.7467C172.691 23.1952 172.807 24.5072 173.039 25.6824C173.272 26.8577 173.552 27.8075 173.88 28.5318C174.208 29.2561 174.542 29.8437 174.884 30.2947C175.226 30.7457 175.513 31.1078 175.745 31.3811C175.977 31.6544 176.094 31.7979 176.094 31.8116C176.094 31.9346 175.991 31.9961 175.786 31.9961H175.725H175.458L174.884 31.5041C173.6 30.3425 172.663 28.8939 172.076 27.1584C171.488 25.4228 171.194 23.6189 171.194 21.7467Z" fill="black"/>
<path d="M181.013 14.572C181.013 14.244 181.143 13.957 181.403 13.711C181.662 13.4651 181.963 13.3352 182.305 13.3216C182.551 13.3216 182.756 13.4036 182.92 13.5675C183.084 13.7315 183.172 13.9365 183.186 14.1825C183.186 14.4968 183.05 14.7838 182.776 15.0435C182.503 15.3031 182.202 15.4398 181.874 15.4534C181.669 15.4534 181.478 15.3851 181.3 15.2485C181.123 15.1118 181.027 14.8863 181.013 14.572ZM177.672 20.9881C177.672 20.8788 177.733 20.667 177.856 20.3527C177.979 20.0384 178.143 19.6899 178.348 19.3072C178.553 18.9246 178.854 18.5761 179.25 18.2618C179.647 17.9475 180.057 17.7971 180.48 17.8108C181.013 17.8108 181.457 17.968 181.813 18.2823C182.168 18.5966 182.353 19.0202 182.366 19.5532C182.366 19.7855 182.271 20.1682 182.079 20.7012C181.888 21.2341 181.615 21.9516 181.259 22.8535C180.904 23.7555 180.617 24.5276 180.398 25.1699C180.33 25.4706 180.296 25.6892 180.296 25.8259C180.296 26.1675 180.412 26.3383 180.644 26.3383C180.767 26.3383 180.897 26.3178 181.034 26.2768C181.17 26.2358 181.328 26.1402 181.505 25.9899C181.683 25.8395 181.867 25.6004 182.059 25.2724C182.25 24.9444 182.421 24.5413 182.571 24.063C182.612 23.899 182.646 23.8033 182.674 23.776C182.701 23.7487 182.817 23.735 183.022 23.735C183.295 23.735 183.432 23.8033 183.432 23.94C183.432 24.0493 183.371 24.2611 183.248 24.5754C183.125 24.8898 182.954 25.2382 182.735 25.6209C182.517 26.0035 182.209 26.3452 181.813 26.6458C181.416 26.9465 180.993 27.0968 180.542 27.0968C180.104 27.0968 179.701 26.9533 179.332 26.6663C178.963 26.3793 178.772 25.942 178.758 25.3544C178.758 25.1221 178.793 24.9034 178.861 24.6984C178.929 24.4934 179.223 23.7145 179.742 22.3616C180.262 20.9813 180.562 20.1545 180.644 19.8812C180.726 19.6079 180.774 19.3414 180.788 19.0817C180.788 18.7538 180.672 18.5898 180.439 18.5898H180.398C179.988 18.5898 179.613 18.8153 179.271 19.2662C178.929 19.7172 178.67 20.2912 178.492 20.9881C178.478 21.0018 178.465 21.0223 178.451 21.0496C178.437 21.077 178.43 21.0975 178.43 21.1111C178.43 21.1248 178.417 21.1385 178.389 21.1521C178.362 21.1658 178.342 21.1726 178.328 21.1726C178.314 21.1726 178.287 21.1726 178.246 21.1726C178.205 21.1726 178.15 21.1726 178.082 21.1726H177.795C177.713 21.0906 177.672 21.0291 177.672 20.9881Z" fill="black"/>
<path d="M187.163 31.9756H187.122C186.958 31.9756 186.835 31.8799 186.753 31.6886V21.7261L186.773 11.7637C186.91 11.586 187.04 11.4972 187.163 11.4972C187.341 11.4972 187.477 11.5997 187.573 11.8047V31.6886C187.464 31.8799 187.341 31.9756 187.204 31.9756H187.163Z" fill="black"/>
<path d="M191.078 20.9471C191.174 20.3732 191.543 19.7104 192.185 18.9587C192.827 18.2071 193.62 17.8245 194.563 17.8108C195.041 17.8108 195.479 17.9338 195.875 18.1798C196.271 18.4258 196.565 18.7333 196.756 19.1022C197.33 18.2413 198.021 17.8108 198.827 17.8108C199.332 17.8108 199.77 17.9611 200.139 18.2618C200.508 18.5624 200.699 18.9656 200.713 19.4712C200.713 19.8675 200.617 20.1887 200.426 20.4347C200.234 20.6807 200.05 20.831 199.872 20.8856C199.695 20.9403 199.537 20.9676 199.401 20.9676C199.141 20.9676 198.929 20.8925 198.765 20.7422C198.601 20.5918 198.519 20.3937 198.519 20.1477C198.519 19.5191 198.861 19.0886 199.544 18.8563C199.394 18.6786 199.121 18.5898 198.724 18.5898C198.547 18.5898 198.417 18.6034 198.335 18.6308C197.816 18.8494 197.433 19.3004 197.187 19.9837C196.367 23.0039 195.957 24.7668 195.957 25.2724C195.957 25.655 196.066 25.9284 196.285 26.0924C196.504 26.2563 196.743 26.3383 197.002 26.3383C197.508 26.3383 198.007 26.1129 198.499 25.6619C198.991 25.2109 199.326 24.6574 199.503 24.0015C199.544 23.8648 199.585 23.7897 199.626 23.776C199.667 23.7623 199.777 23.7487 199.954 23.735H200.036C200.241 23.735 200.344 23.7897 200.344 23.899C200.344 23.9126 200.33 23.9878 200.303 24.1245C200.084 24.9034 199.66 25.5936 199.032 26.1949C198.403 26.7962 197.672 27.0968 196.838 27.0968C195.882 27.0968 195.157 26.6663 194.666 25.8054C194.105 26.6527 193.463 27.0763 192.739 27.0763H192.616C191.946 27.0763 191.468 26.8986 191.181 26.5433C190.894 26.188 190.743 25.8122 190.73 25.4159C190.73 24.9786 190.86 24.6233 191.119 24.35C191.379 24.0766 191.686 23.94 192.042 23.94C192.629 23.94 192.923 24.227 192.923 24.8009C192.923 25.0742 192.841 25.3134 192.677 25.5184C192.513 25.7234 192.356 25.86 192.206 25.9284C192.055 25.9967 191.967 26.0309 191.939 26.0309L191.878 26.0514C191.878 26.065 191.919 26.0924 192.001 26.1334C192.083 26.1744 192.192 26.2222 192.329 26.2768C192.465 26.3315 192.595 26.352 192.718 26.3383C193.21 26.3383 193.634 26.0309 193.989 25.4159C194.112 25.1972 194.269 24.7326 194.461 24.022C194.652 23.3113 194.843 22.5734 195.035 21.8081C195.226 21.0428 195.335 20.5918 195.362 20.4552C195.431 20.0862 195.465 19.8197 195.465 19.6557C195.465 19.2731 195.362 18.9997 195.157 18.8358C194.953 18.6718 194.72 18.5898 194.461 18.5898C193.914 18.5898 193.401 18.8084 192.923 19.2457C192.445 19.683 192.11 20.2433 191.919 20.9266C191.891 21.0496 191.857 21.118 191.816 21.1316C191.775 21.1453 191.666 21.159 191.488 21.1726H191.201C191.119 21.0906 191.078 21.0155 191.078 20.9471Z" fill="black"/>
<path d="M202.968 11.5177L203.05 11.4972C203.118 11.4972 203.186 11.4972 203.255 11.4972H203.501L204.075 11.9892C205.359 13.1508 206.295 14.5994 206.883 16.335C207.471 18.0705 207.764 19.8744 207.764 21.7467C207.764 22.6759 207.696 23.5711 207.559 24.432C207.423 25.293 207.266 26.0241 207.088 26.6254C206.91 27.2267 206.657 27.828 206.329 28.4293C206.001 29.0306 205.742 29.4884 205.55 29.8027C205.359 30.117 205.079 30.4655 204.71 30.8482C204.341 31.2308 204.122 31.4563 204.054 31.5246C203.986 31.5929 203.829 31.7228 203.583 31.9141C203.542 31.9551 203.514 31.9824 203.501 31.9961H203.255C203.145 31.9961 203.07 31.9961 203.029 31.9961C202.988 31.9961 202.954 31.9756 202.927 31.9346C202.899 31.8936 202.879 31.8321 202.865 31.7501C202.879 31.7364 202.954 31.6476 203.091 31.4836C205.209 29.2834 206.268 26.0378 206.268 21.7467C206.268 17.4556 205.209 14.2099 203.091 12.0097C202.954 11.8457 202.879 11.7569 202.865 11.7432C202.865 11.6339 202.899 11.5587 202.968 11.5177Z" fill="black"/>
<path d="M214.595 28.9967V0.0025406H218.567V1.16231H215.754V27.8369H218.567V28.9967H214.595Z" fill="black"/>
<path d="M220.451 20.4144H220.857C221.611 20.4144 222.065 20.2791 222.22 20.0085V19.7766C222.22 19.6026 222.22 19.3803 222.22 19.1097C222.22 18.8391 222.22 18.5202 222.22 18.1529C222.22 17.7856 222.23 17.37 222.249 16.9061C222.268 16.4422 222.268 15.959 222.249 15.4564C222.23 14.9539 222.23 14.4223 222.249 13.8618C222.268 13.3012 222.268 12.7503 222.249 12.2091C222.249 11.4939 222.249 10.7401 222.249 9.94754C222.249 9.15504 222.249 8.43018 222.249 7.77298C222.249 7.11578 222.249 6.5359 222.249 6.03333C222.249 5.53077 222.239 5.10552 222.22 4.75759C222.201 4.40966 222.201 4.24536 222.22 4.26469C222.162 3.89743 222.027 3.65581 221.814 3.53983C221.601 3.42386 221.167 3.33687 220.509 3.27889H219.987V2.61202C219.987 2.16744 220.007 1.94515 220.045 1.94515L220.335 1.91616C220.529 1.89683 220.809 1.8775 221.176 1.85817C221.543 1.83884 221.901 1.81951 222.249 1.80018C222.578 1.78085 222.935 1.76152 223.322 1.74219C223.708 1.72287 223.998 1.69387 224.192 1.65521C224.385 1.61655 224.491 1.60689 224.511 1.62622H224.597V10.7594C224.597 16.8868 224.607 19.9699 224.626 20.0085C224.704 20.1632 224.82 20.2695 224.974 20.3275C225.38 20.3854 225.854 20.4144 226.395 20.4144H226.859V21.7482H226.627L225.96 21.7192C225.516 21.6998 225.042 21.6902 224.54 21.6902C224.037 21.6902 223.67 21.6805 223.438 21.6612C223.206 21.6419 222.839 21.6419 222.336 21.6612C221.833 21.6805 221.35 21.6998 220.886 21.7192L220.219 21.7482H219.987V20.4144H220.451Z" fill="black"/>
<path d="M228.106 15.5434C228.106 13.7071 228.734 12.1221 229.99 10.7884C231.247 9.45462 232.764 8.77809 234.543 8.75876C236.282 8.75876 237.78 9.41596 239.037 10.7304C240.293 12.0448 240.931 13.6394 240.95 15.5144C240.95 17.3507 240.332 18.8971 239.095 20.1535C237.858 21.4099 236.34 22.0381 234.543 22.0381C232.668 22.0381 231.131 21.3905 229.932 20.0955C228.734 18.8004 228.125 17.283 228.106 15.5434ZM234.543 20.8783C236.901 20.8783 238.08 19.303 238.08 16.1523V15.2245V14.4996C238.08 14.0744 238.07 13.7071 238.051 13.3978C238.031 13.0886 237.964 12.7213 237.848 12.296C237.732 11.8708 237.577 11.5229 237.384 11.2523C237.191 10.9816 236.891 10.711 236.485 10.4404C236.079 10.1698 235.606 9.97651 235.064 9.86054C234.968 9.84121 234.813 9.83154 234.6 9.83154C234.021 9.83154 233.47 9.94752 232.948 10.1795C232.117 10.6047 231.575 11.1943 231.324 11.9481C231.073 12.702 230.947 13.5911 230.947 14.6156V15.1955C230.947 17.0511 231.131 18.3558 231.498 19.1097C232.117 20.2888 233.131 20.8783 234.543 20.8783Z" fill="black"/>
<path d="M251.33 9.88954C252.181 9.03904 253.147 8.61379 254.23 8.61379C254.809 8.61379 255.225 8.79742 255.476 9.16468C255.728 9.53194 255.853 9.8992 255.853 10.2665C255.853 10.5371 255.766 10.7787 255.592 10.9913C255.418 11.2039 255.157 11.3102 254.809 11.3102C254.172 11.3102 253.814 11.0203 253.737 10.4404C253.698 10.1698 253.727 9.96685 253.824 9.83155C253.824 9.81222 253.833 9.78322 253.853 9.74456V9.71557C253.311 9.77356 252.799 9.98618 252.316 10.3534C252.161 10.4501 252.084 10.5177 252.084 10.5564C252.084 10.5757 252.123 10.6241 252.2 10.7014C252.277 10.7787 252.364 10.8947 252.461 11.0493C252.558 11.2039 252.664 11.3779 252.78 11.5712C252.896 11.7645 252.983 12.0158 253.041 12.325C253.099 12.6343 253.137 12.9533 253.157 13.2819C253.157 14.4803 252.683 15.4951 251.736 16.3262C250.789 17.1574 249.619 17.5827 248.228 17.602C247.261 17.602 246.304 17.3314 245.357 16.7901C245.145 17.1381 245.038 17.5053 245.038 17.8919C245.038 18.5685 245.29 19.071 245.792 19.3996C245.966 19.5156 246.13 19.5736 246.285 19.5736C246.44 19.5736 247.136 19.5929 248.373 19.6316C249.996 19.6509 251.04 19.7089 251.504 19.8055C252.683 19.9795 253.611 20.3758 254.288 20.9943C255.041 21.7481 255.418 22.6953 255.418 23.8357C255.418 25.1308 254.664 26.1263 253.157 26.8221C251.997 27.4213 250.625 27.7209 249.04 27.7209C247.435 27.7209 246.053 27.4213 244.893 26.8221C243.386 26.1456 242.632 25.1791 242.632 23.9227C242.632 23.2269 242.835 22.647 243.241 22.1831C243.647 21.7192 244.053 21.4002 244.458 21.2263L244.777 21.0523C244.082 20.4531 243.734 19.6412 243.734 18.6168C243.734 17.7083 244.014 16.8868 244.574 16.1523C243.724 15.3018 243.299 14.345 243.299 13.2819C243.299 12.0641 243.782 11.0396 244.748 10.2085C245.715 9.37731 246.884 8.95206 248.257 8.93273C249.243 8.93273 250.161 9.18401 251.011 9.68658L251.33 9.88954ZM250.46 11.8032C250.364 11.2619 250.112 10.8367 249.706 10.5274C249.301 10.2181 248.798 10.0538 248.199 10.0345C247.638 10.0345 247.155 10.1891 246.749 10.4984C246.343 10.8077 246.092 11.2426 245.995 11.8032C245.937 12.1318 245.908 12.6247 245.908 13.2819C245.908 14.1323 245.976 14.7606 246.111 15.1665C246.246 15.5724 246.536 15.9107 246.981 16.1813C247.31 16.3746 247.725 16.4712 248.228 16.4712C248.653 16.4712 249.02 16.4036 249.33 16.2683C249.639 16.1329 249.861 15.959 249.996 15.7464C250.132 15.5337 250.238 15.3404 250.315 15.1665C250.393 14.9925 250.441 14.8475 250.46 14.7316C250.518 14.4223 250.547 13.9391 250.547 13.2819C250.547 12.6247 250.518 12.1318 250.46 11.8032ZM253.476 23.9227C253.476 23.4395 253.34 23.0432 253.07 22.734C252.799 22.4247 252.403 22.2024 251.881 22.0671C251.359 21.9318 250.886 21.8448 250.46 21.8061C250.035 21.7675 249.513 21.7481 248.895 21.7481H248.112C246.817 21.7481 246.044 21.8061 245.792 21.9221C245.406 22.0961 245.106 22.3667 244.893 22.734C244.681 23.1012 244.565 23.4878 244.545 23.8937C244.545 24.087 244.603 24.3093 244.719 24.5606C244.835 24.8119 245.038 25.1018 245.328 25.4304C245.618 25.759 246.082 26.0296 246.72 26.2422C247.358 26.4549 248.131 26.5708 249.04 26.5902C250.373 26.5902 251.446 26.3196 252.258 25.7783C253.07 25.2371 253.476 24.6186 253.476 23.9227Z" fill="black"/>
<path d="M259.014 14.4996C259.014 13.1659 259.11 11.8998 259.304 10.7014C259.497 9.50296 259.719 8.46884 259.97 7.59901C260.222 6.72919 260.579 5.87869 261.043 5.04753C261.507 4.21636 261.874 3.56882 262.145 3.10492C262.416 2.64101 262.822 2.13844 263.363 1.59722C263.904 1.056 264.223 0.727395 264.32 0.611418C264.416 0.495441 264.658 0.292482 265.044 0.0025406H265.421H265.537C265.808 0.0025406 265.943 0.0895231 265.943 0.263488C265.943 0.321476 265.779 0.524436 265.45 0.872366C265.122 1.2203 264.725 1.73253 264.262 2.40906C263.798 3.08559 263.324 3.91675 262.841 4.90255C262.358 5.88836 261.952 7.22209 261.623 8.90375C261.294 10.5854 261.13 12.4507 261.13 14.4996C261.13 16.5485 261.294 18.4042 261.623 20.0665C261.952 21.7288 262.348 23.0722 262.812 24.0967C263.276 25.1212 263.749 25.9523 264.233 26.5902C264.716 27.2281 265.122 27.7403 265.45 28.1269C265.779 28.5135 265.943 28.7164 265.943 28.7358C265.943 28.9097 265.798 28.9967 265.508 28.9967H265.421H265.044L264.233 28.3008C262.416 26.6578 261.092 24.6089 260.26 22.1541C259.429 19.6992 259.014 17.1478 259.014 14.4996Z" fill="black"/>
<path d="M268.234 13.4267C268.253 13.3687 268.272 13.2914 268.292 13.1948C268.311 13.0981 268.359 12.8855 268.437 12.5569C268.514 12.2283 268.611 11.9287 268.727 11.6581C268.843 11.3875 268.988 11.0685 269.162 10.7013C269.336 10.334 269.529 10.0441 269.741 9.83145C269.954 9.61883 270.205 9.40621 270.495 9.19358C270.785 8.98096 271.104 8.89398 271.452 8.93263C272.902 8.93263 273.83 9.55118 274.236 10.7883L274.525 10.5273C275.724 9.46419 276.864 8.93263 277.947 8.93263C279.203 8.93263 280.189 9.38688 280.904 10.2954C281.619 11.2038 281.977 12.3056 281.977 13.6007C281.977 15.6883 281.242 17.6116 279.773 19.3705C278.304 21.1295 276.642 22.0187 274.786 22.038C274.361 22.038 273.984 21.98 273.656 21.864C273.443 21.7674 273.221 21.6224 272.989 21.4291C272.757 21.2358 272.573 21.0715 272.438 20.9362L272.235 20.7043C272.216 20.7236 272.003 21.5644 271.597 23.2268C271.191 24.8891 270.988 25.7299 270.988 25.7493C270.988 25.8652 271.065 25.9329 271.22 25.9522C271.375 25.9715 271.732 26.0005 272.293 26.0392H273.018C273.134 26.1745 273.192 26.2615 273.192 26.3001C273.192 26.3388 273.163 26.5128 273.105 26.822C273.047 27.054 272.989 27.199 272.931 27.2569C272.873 27.3149 272.747 27.3536 272.554 27.3729C272.515 27.3729 272.409 27.3729 272.235 27.3729C272.061 27.3729 271.732 27.3633 271.249 27.3439C270.766 27.3246 270.167 27.3149 269.451 27.3149C268.098 27.3149 267.238 27.3343 266.871 27.3729H266.639C266.504 27.2376 266.436 27.1313 266.436 27.054C266.475 26.5321 266.6 26.1938 266.813 26.0392H267.393C268.05 26.0199 268.427 25.9039 268.524 25.6913C268.582 25.5753 269.171 23.2654 270.292 18.7617C271.413 14.2579 272.003 11.8707 272.061 11.6001C272.08 11.5035 272.09 11.3681 272.09 11.1942C272.09 10.4017 271.848 10.0054 271.365 10.0054C270.94 10.0054 270.582 10.276 270.292 10.8173C270.002 11.3585 269.78 11.948 269.625 12.5859C269.471 13.2238 269.355 13.5717 269.278 13.6297C269.239 13.6683 269.084 13.6877 268.814 13.6877H268.408C268.292 13.5717 268.234 13.4847 268.234 13.4267ZM272.728 18.7907C273.153 20.2597 273.868 20.9942 274.873 20.9942C275.453 20.9942 276.014 20.7719 276.555 20.3273C277.096 19.8828 277.541 19.3222 277.889 18.6457C278.237 17.9885 278.585 16.9447 278.933 15.5143C279.281 14.0839 279.464 13.0208 279.483 12.325V12.151C279.483 10.7206 278.894 10.0054 277.715 10.0054C277.502 10.0054 277.29 10.0344 277.077 10.0924C276.864 10.1504 276.652 10.2374 276.439 10.3533C276.226 10.4693 276.033 10.595 275.859 10.7303C275.685 10.8656 275.521 11.0105 275.366 11.1652C275.212 11.3198 275.067 11.4648 274.931 11.6001C274.796 11.7354 274.69 11.8707 274.612 12.006C274.535 12.1413 274.458 12.238 274.38 12.296L274.294 12.4119C274.294 12.4313 274.265 12.5666 274.207 12.8179C274.149 13.0691 274.042 13.4944 273.888 14.0936C273.733 14.6928 273.598 15.1954 273.482 15.6013C272.979 17.6502 272.728 18.7133 272.728 18.7907Z" fill="black"/>
<path d="M284.876 14.4996C284.876 13.1659 284.973 11.8998 285.166 10.7014C285.36 9.50296 285.582 8.46884 285.833 7.59901C286.084 6.72919 286.442 5.87869 286.906 5.04753C287.37 4.21636 287.737 3.56882 288.008 3.10492C288.278 2.64101 288.684 2.13844 289.226 1.59722C289.767 1.056 290.086 0.727395 290.182 0.611418C290.279 0.495441 290.521 0.292482 290.907 0.0025406H291.284H291.4C291.671 0.0025406 291.806 0.0895231 291.806 0.263488C291.806 0.321476 291.642 0.524436 291.313 0.872366C290.985 1.2203 290.588 1.73253 290.124 2.40906C289.66 3.08559 289.187 3.91675 288.704 4.90255C288.22 5.88836 287.814 7.22209 287.486 8.90375C287.157 10.5854 286.993 12.4507 286.993 14.4996C286.993 16.5485 287.157 18.4042 287.486 20.0665C287.814 21.7288 288.211 23.0722 288.675 24.0967C289.139 25.1212 289.612 25.9523 290.095 26.5902C290.579 27.2281 290.985 27.7403 291.313 28.1269C291.642 28.5135 291.806 28.7164 291.806 28.7358C291.806 28.9097 291.661 28.9967 291.371 28.9967H291.284H290.907L290.095 28.3008C288.278 26.6578 286.954 24.6089 286.123 22.1541C285.292 19.6992 284.876 17.1478 284.876 14.4996Z" fill="black"/>
<path d="M294.039 13.4268C294.039 13.1562 294.184 12.6922 294.473 12.035C294.763 11.3778 295.227 10.6916 295.865 9.97646C296.503 9.26127 297.218 8.91334 298.011 8.93267C298.803 8.93267 299.441 9.15496 299.924 9.59954C300.408 10.0441 300.659 10.6627 300.678 11.4552C300.64 11.8224 300.611 12.0254 300.591 12.064C300.591 12.122 300.437 12.5666 300.127 13.3978C299.818 14.2289 299.499 15.1664 299.171 16.2102C298.842 17.254 298.687 18.0852 298.707 18.7037C298.707 19.5349 298.842 20.1148 299.113 20.4434C299.383 20.772 299.789 20.9459 300.33 20.9652C300.775 20.9652 301.19 20.8589 301.577 20.6463C301.964 20.4337 302.263 20.2114 302.476 19.9794C302.689 19.7475 302.949 19.4286 303.259 19.0226C303.259 19.0033 303.307 18.81 303.404 18.4428C303.5 18.0755 303.636 17.5053 303.81 16.7321C303.984 15.9589 304.167 15.2437 304.36 14.5865C305.095 11.6871 305.501 10.1698 305.578 10.0344C305.83 9.51255 306.245 9.25161 306.825 9.25161C307.076 9.25161 307.279 9.31926 307.434 9.45457C307.589 9.58987 307.695 9.70585 307.753 9.8025C307.811 9.89914 307.83 9.98613 307.811 10.0634C307.811 10.3147 307.337 12.3443 306.39 16.1522C305.443 19.9601 304.902 22.0477 304.766 22.415C304.225 24.0193 303.288 25.295 301.954 26.2422C300.62 27.1893 299.287 27.6726 297.953 27.6919C297.083 27.6919 296.319 27.4793 295.662 27.054C295.005 26.6288 294.676 25.9909 294.676 25.1404C294.676 24.7152 294.744 24.3576 294.879 24.0676C295.015 23.7777 295.198 23.5651 295.43 23.4298C295.662 23.2944 295.856 23.1978 296.01 23.1398C296.165 23.0818 296.329 23.0528 296.503 23.0528C297.354 23.0528 297.779 23.4587 297.779 24.2706C297.779 24.6572 297.663 24.9954 297.431 25.2854C297.199 25.5753 296.977 25.7686 296.764 25.8653C296.551 25.9619 296.426 26.0102 296.387 26.0102L296.3 26.0392C296.339 26.1359 296.522 26.2519 296.851 26.3872C297.18 26.5225 297.508 26.5901 297.837 26.5901H298.069C298.397 26.5901 298.649 26.5708 298.823 26.5321C299.46 26.3582 300.05 25.9909 300.591 25.4303C301.132 24.8698 301.548 24.2706 301.838 23.6327C302.128 22.9948 302.35 22.4536 302.505 22.009C302.66 21.5645 302.737 21.2745 302.737 21.1392L302.563 21.2552C302.447 21.3325 302.263 21.4388 302.012 21.5741C301.761 21.7094 301.509 21.8254 301.258 21.9221C300.872 22.0187 300.495 22.067 300.127 22.067C299.238 22.067 298.455 21.8544 297.779 21.4292C297.102 21.0039 296.658 20.3177 296.445 19.3706C296.426 19.2353 296.416 18.9357 296.416 18.4718C296.416 17.37 296.754 15.9299 297.431 14.1516C298.107 12.3733 298.446 11.2425 298.446 10.7593C298.446 10.74 298.446 10.7206 298.446 10.7013C298.446 10.5273 298.446 10.4114 298.446 10.3534C298.446 10.2954 298.407 10.2277 298.33 10.1504C298.252 10.0731 298.146 10.0344 298.011 10.0344H297.895C297.45 10.0344 297.044 10.2181 296.677 10.5853C296.31 10.9526 296.02 11.3489 295.807 11.7741C295.595 12.1993 295.43 12.6053 295.314 12.9919C295.198 13.3784 295.121 13.5911 295.082 13.6297C295.044 13.6684 294.889 13.6877 294.618 13.6877H294.213C294.097 13.5717 294.039 13.4848 294.039 13.4268Z" fill="black"/>
<path d="M319.722 28.9677H319.664C319.432 28.9677 319.258 28.8323 319.142 28.5617V14.4706L319.171 0.379408C319.364 0.128125 319.548 0.00248389 319.722 0.00248389C319.973 0.00248389 320.166 0.147455 320.301 0.437396V28.5617C320.147 28.8323 319.973 28.9677 319.78 28.9677H319.722Z" fill="black"/>
<path d="M333.314 13.3688C333.449 12.5569 333.971 11.6195 334.88 10.5563C335.788 9.49321 336.909 8.95199 338.243 8.93266C338.92 8.93266 339.538 9.10662 340.099 9.45455C340.659 9.80248 341.075 10.2374 341.345 10.7593C342.157 9.54154 343.133 8.93266 344.274 8.93266C344.989 8.93266 345.608 9.14528 346.129 9.57053C346.651 9.99578 346.922 10.566 346.941 11.2812C346.941 11.8417 346.806 12.296 346.535 12.6439C346.265 12.9918 346.004 13.2045 345.753 13.2818C345.501 13.3591 345.279 13.3978 345.086 13.3978C344.718 13.3978 344.419 13.2914 344.187 13.0788C343.955 12.8662 343.839 12.5859 343.839 12.238C343.839 11.3488 344.322 10.74 345.289 10.4114C345.076 10.1601 344.689 10.0344 344.129 10.0344C343.878 10.0344 343.694 10.0538 343.578 10.0924C342.843 10.4017 342.302 11.0396 341.954 12.006C340.795 16.2778 340.215 18.7713 340.215 19.4865C340.215 20.0278 340.369 20.4143 340.679 20.6463C340.988 20.8783 341.326 20.9942 341.693 20.9942C342.409 20.9942 343.114 20.6753 343.81 20.0374C344.506 19.3996 344.979 18.6167 345.231 17.6889C345.289 17.4956 345.347 17.3893 345.405 17.37C345.463 17.3506 345.617 17.3313 345.869 17.312H345.985C346.274 17.312 346.419 17.3893 346.419 17.5439C346.419 17.5633 346.4 17.6696 346.361 17.8629C346.052 18.9646 345.453 19.9408 344.564 20.7913C343.675 21.6418 342.641 22.067 341.461 22.067C340.108 22.067 339.084 21.4581 338.388 20.2404C337.596 21.4388 336.687 22.038 335.663 22.038H335.489C334.541 22.038 333.865 21.7867 333.459 21.2842C333.053 20.7816 332.84 20.25 332.821 19.6895C332.821 19.071 333.005 18.5684 333.372 18.1818C333.739 17.7952 334.174 17.6019 334.677 17.6019C335.508 17.6019 335.924 18.0078 335.924 18.8197C335.924 19.2063 335.808 19.5445 335.576 19.8345C335.344 20.1244 335.121 20.3177 334.909 20.4143C334.696 20.511 334.57 20.5593 334.532 20.5593L334.445 20.5883C334.445 20.6076 334.503 20.6463 334.619 20.7043C334.735 20.7623 334.889 20.8299 335.083 20.9072C335.276 20.9846 335.46 21.0136 335.634 20.9942C336.329 20.9942 336.929 20.5593 337.431 19.6895C337.605 19.3802 337.827 18.723 338.098 17.7179C338.369 16.7128 338.639 15.669 338.91 14.5865C339.181 13.5041 339.335 12.8662 339.374 12.6729C339.47 12.151 339.519 11.7741 339.519 11.5421C339.519 11.0009 339.374 10.6143 339.084 10.3824C338.794 10.1504 338.465 10.0344 338.098 10.0344C337.325 10.0344 336.6 10.3437 335.924 10.9623C335.247 11.5808 334.773 12.3733 334.503 13.3398C334.464 13.5137 334.416 13.6104 334.358 13.6297C334.3 13.649 334.145 13.6684 333.894 13.6877H333.488C333.372 13.5717 333.314 13.4654 333.314 13.3688Z" fill="black"/>
<path d="M350.653 20.7333C350.653 20.7333 350.653 20.4917 350.653 20.0085C350.653 19.5252 350.807 19.1096 351.116 18.7617C351.426 18.4138 351.841 18.2398 352.363 18.2398C352.904 18.2398 353.388 18.4814 353.813 18.9647C354.238 19.4479 354.46 20.2984 354.48 21.5162C354.48 22.1927 354.393 22.8499 354.219 23.4878C354.045 24.1256 353.842 24.6765 353.61 25.1404C353.378 25.6043 353.127 26.0006 352.856 26.3292C352.586 26.6578 352.354 26.9187 352.16 27.112C351.967 27.3053 351.841 27.3923 351.783 27.373C351.706 27.373 351.58 27.286 351.406 27.112C351.232 26.9381 351.145 26.8124 351.145 26.7351C351.145 26.6578 351.252 26.5031 351.464 26.2712C351.677 26.0392 351.919 25.7493 352.189 25.4014C352.46 25.0534 352.711 24.5702 352.943 23.9517C353.175 23.3331 353.33 22.6276 353.407 21.8351V21.4872L353.378 21.5162C353.339 21.5355 353.291 21.5548 353.233 21.5741C353.175 21.5935 353.117 21.6225 353.059 21.6611C353.001 21.6998 352.914 21.7191 352.798 21.7191C352.682 21.7191 352.566 21.7288 352.45 21.7481C351.928 21.7481 351.503 21.5838 351.174 21.2552L350.653 20.7333Z" fill="black"/>
<path d="M366.617 4.35158C366.617 3.88768 366.8 3.48176 367.168 3.13383C367.535 2.7859 367.96 2.60227 368.443 2.58294C368.791 2.58294 369.081 2.69892 369.313 2.93087C369.545 3.16282 369.671 3.45276 369.69 3.80069C369.69 4.24527 369.497 4.65119 369.11 5.01845C368.724 5.38571 368.298 5.579 367.834 5.59833C367.545 5.59833 367.274 5.50168 367.023 5.30839C366.771 5.1151 366.636 4.79616 366.617 4.35158ZM361.891 13.4268C361.891 13.2721 361.978 12.9725 362.152 12.5279C362.326 12.0834 362.558 11.5905 362.847 11.0492C363.137 10.508 363.563 10.0151 364.123 9.57053C364.684 9.12595 365.264 8.91333 365.863 8.93266C366.617 8.93266 367.245 9.15495 367.748 9.59953C368.25 10.0441 368.511 10.6433 368.53 11.3972C368.53 11.7258 368.395 12.267 368.124 13.0208C367.854 13.7747 367.467 14.7895 366.965 16.0652C366.462 17.341 366.056 18.4331 365.747 19.3416C365.65 19.7668 365.602 20.0761 365.602 20.2694C365.602 20.7526 365.766 20.9942 366.095 20.9942C366.269 20.9942 366.452 20.9652 366.646 20.9073C366.839 20.8493 367.061 20.714 367.313 20.5013C367.564 20.2887 367.825 19.9504 368.095 19.4865C368.366 19.0226 368.608 18.4524 368.82 17.7759C368.878 17.5439 368.927 17.4086 368.965 17.37C369.004 17.3313 369.168 17.312 369.458 17.312C369.845 17.312 370.038 17.4086 370.038 17.6019C370.038 17.7566 369.951 18.0562 369.777 18.5007C369.603 18.9453 369.362 19.4382 369.052 19.9794C368.743 20.5207 368.308 21.0039 367.748 21.4291C367.187 21.8544 366.588 22.067 365.95 22.067C365.331 22.067 364.761 21.8641 364.239 21.4581C363.717 21.0522 363.447 20.4337 363.427 19.6025C363.427 19.2739 363.476 18.9646 363.572 18.6747C363.669 18.3848 364.085 17.283 364.819 15.3694C365.554 13.4171 365.979 12.2477 366.095 11.8611C366.211 11.4745 366.278 11.0976 366.298 10.7303C366.298 10.2664 366.133 10.0344 365.805 10.0344H365.747C365.167 10.0344 364.635 10.3534 364.152 10.9912C363.669 11.6291 363.302 12.441 363.05 13.4268C363.031 13.4461 363.012 13.4751 362.992 13.5137C362.973 13.5524 362.963 13.5814 362.963 13.6007C362.963 13.6201 362.944 13.6394 362.905 13.6587C362.867 13.678 362.838 13.6877 362.818 13.6877C362.799 13.6877 362.761 13.6877 362.703 13.6877C362.645 13.6877 362.567 13.6877 362.471 13.6877H362.065C361.949 13.5717 361.891 13.4847 361.891 13.4268Z" fill="black"/>
<path d="M373.024 0.0315348L373.14 0.0025406C373.237 0.0025406 373.334 0.0025406 373.43 0.0025406H373.778L374.59 0.698401C376.407 2.3414 377.731 4.39032 378.562 6.84516C379.393 9.3 379.809 11.8515 379.809 14.4996C379.809 15.814 379.712 17.0801 379.519 18.2979C379.326 19.5156 379.104 20.5497 378.852 21.4002C378.601 22.2507 378.243 23.1012 377.779 23.9517C377.316 24.8022 376.948 25.4498 376.678 25.8943C376.407 26.3389 376.011 26.8318 375.489 27.373C374.967 27.9143 374.658 28.2332 374.561 28.3298C374.464 28.4265 374.242 28.6101 373.894 28.8807C373.836 28.9387 373.798 28.9774 373.778 28.9967H373.43C373.276 28.9967 373.169 28.9967 373.111 28.9967C373.053 28.9967 373.005 28.9677 372.966 28.9097C372.928 28.8517 372.899 28.7648 372.879 28.6488C372.899 28.6294 373.005 28.5038 373.198 28.2719C376.194 25.1598 377.692 20.5691 377.692 14.4996C377.692 8.43018 376.194 3.83943 373.198 0.727395C373.005 0.495441 372.899 0.3698 372.879 0.350471C372.879 0.195835 372.928 0.0895231 373.024 0.0315348Z" fill="black"/>
<path d="M384.303 0.0315348L384.419 0.0025406C384.516 0.0025406 384.612 0.0025406 384.709 0.0025406H385.057L385.869 0.698401C387.686 2.3414 389.01 4.39032 389.841 6.84516C390.672 9.3 391.088 11.8515 391.088 14.4996C391.088 15.814 390.991 17.0801 390.798 18.2979C390.605 19.5156 390.382 20.5497 390.131 21.4002C389.88 22.2507 389.522 23.1012 389.058 23.9517C388.594 24.8022 388.227 25.4498 387.956 25.8943C387.686 26.3389 387.29 26.8318 386.768 27.373C386.246 27.9143 385.937 28.2332 385.84 28.3298C385.743 28.4265 385.521 28.6101 385.173 28.8807C385.115 28.9387 385.076 28.9774 385.057 28.9967H384.709C384.554 28.9967 384.448 28.9967 384.39 28.9967C384.332 28.9967 384.284 28.9677 384.245 28.9097C384.207 28.8517 384.178 28.7648 384.158 28.6488C384.178 28.6294 384.284 28.5038 384.477 28.2719C387.473 25.1598 388.971 20.5691 388.971 14.4996C388.971 8.43018 387.473 3.83943 384.477 0.727395C384.284 0.495441 384.178 0.3698 384.158 0.350471C384.158 0.195835 384.207 0.0895231 384.303 0.0315348Z" fill="black"/>
<path d="M394.48 1.16231V0.0025406H398.452V28.9967H394.48V27.8369H397.293V1.16231H394.48Z" fill="black"/>
<path d="M410.784 14.8765C410.784 14.8765 410.784 14.7509 410.784 14.4996C410.784 14.2483 410.919 14.055 411.189 13.9197H428.035C428.325 14.0743 428.47 14.2676 428.47 14.4996C428.47 14.7315 428.325 14.9248 428.035 15.0795H411.189C410.919 14.9442 410.784 14.7509 410.784 14.4996V14.8765Z" fill="black"/>
<path d="M438.189 27.3729C438.073 27.2569 438.015 27.1796 438.015 27.141C438.015 27.083 438.778 23.9903 440.305 17.8628C441.832 11.7354 442.644 8.53638 442.741 8.26577C443.166 6.95137 443.717 5.80127 444.394 4.81546C445.07 3.82966 445.708 3.11447 446.307 2.6699C447.39 1.76141 448.549 1.30717 449.787 1.30717H449.845C451.043 1.30717 452.029 1.67443 452.802 2.40895C453.575 3.14347 453.962 4.08095 453.962 5.22138C453.962 7.25097 452.957 8.93264 450.946 10.2664L451.323 10.6433C452.309 11.6291 452.802 12.8952 452.802 14.4415C452.802 16.6258 451.98 18.4331 450.337 19.8634C448.694 21.2938 446.848 22.0187 444.8 22.038C444.22 22.038 443.698 21.9607 443.234 21.806C442.77 21.6514 442.403 21.4678 442.132 21.2552C441.861 21.0425 441.649 20.8202 441.494 20.5883C441.34 20.3563 441.224 20.1727 441.146 20.0374C441.069 19.9021 441.021 19.8441 441.001 19.8634L439.146 27.199C439.107 27.3149 438.914 27.3729 438.566 27.3729H438.189ZM447.583 9.25157C448.337 9.25157 449.052 9.36755 449.729 9.5995L449.874 9.51252C449.951 9.4352 450.018 9.36755 450.076 9.30956C450.134 9.25157 450.231 9.15492 450.366 9.01962C450.502 8.88431 450.618 8.74901 450.714 8.6137C450.811 8.47839 450.917 8.30443 451.033 8.0918C451.149 7.87918 451.265 7.64723 451.381 7.39594C451.497 7.14466 451.584 6.86439 451.642 6.55511C451.7 6.24584 451.777 5.89791 451.874 5.51132C451.913 5.33736 451.932 5.01842 451.932 4.55452C451.932 4.20659 451.922 3.9843 451.903 3.88765C451.613 2.90185 450.879 2.40895 449.7 2.40895C448.888 2.40895 448.124 2.6409 447.409 3.10481C446.694 3.56872 446.104 4.15826 445.64 4.87345C445.176 5.58864 444.8 6.24584 444.51 6.84506C444.22 7.44427 443.997 8.01449 443.843 8.55571C443.746 8.86498 443.379 10.2857 442.741 12.8179C442.103 15.35 441.774 16.7031 441.755 16.877C441.736 16.9737 441.726 17.1766 441.726 17.4859C441.726 18.4137 441.939 19.1772 442.364 19.7765C442.963 20.5883 443.804 20.9942 444.887 20.9942C445.698 20.9942 446.559 20.7526 447.467 20.2694C448.375 19.7861 449.11 18.955 449.671 17.7759C449.98 17.1187 450.212 16.3745 450.366 15.5433C450.521 14.7121 450.598 14.0839 450.598 13.6587C450.598 12.5376 450.26 11.6388 449.584 10.9622C448.772 11.2328 448.047 11.3681 447.409 11.3681H447.119C445.592 11.3681 444.829 11.0685 444.829 10.4693C444.829 10.334 444.858 10.1987 444.916 10.0634C445.186 9.52218 446.075 9.25157 447.583 9.25157Z" fill="black"/>
<path d="M462.022 3.53971C462.022 3.40441 461.471 3.31742 460.369 3.27877C459.925 3.27877 459.635 3.2691 459.5 3.24977C459.364 3.23044 459.297 3.14346 459.297 2.98882C459.297 2.95017 459.316 2.81486 459.355 2.58291C459.471 2.19632 459.567 1.99336 459.645 1.97403C459.683 1.9547 459.789 1.94503 459.963 1.94503H460.108C460.901 1.98369 462.215 2.00302 464.052 2.00302C464.709 2.00302 465.318 2.00302 465.878 2.00302C466.439 2.00302 466.874 1.99336 467.183 1.97403C467.492 1.9547 467.686 1.9547 467.763 1.97403C468.091 1.97403 468.256 2.05135 468.256 2.20598C468.256 2.30263 468.227 2.43794 468.169 2.6119C468.149 2.65056 468.14 2.70855 468.14 2.78587C468.14 2.86318 468.13 2.92117 468.111 2.95983C468.091 2.99849 468.072 3.03715 468.053 3.07581C468.034 3.11447 468.005 3.14346 467.966 3.16279C467.927 3.18212 467.889 3.20145 467.85 3.22078C467.811 3.24011 467.744 3.24977 467.647 3.24977C467.55 3.24977 467.463 3.25944 467.386 3.27877C467.309 3.2981 467.173 3.2981 466.98 3.27877C466.207 3.2981 465.714 3.32709 465.501 3.36575C465.289 3.40441 465.115 3.51072 464.979 3.68468L462.631 12.9048C462.65 12.9048 464.429 11.5131 467.966 8.72967C471.503 5.94623 473.32 4.51585 473.417 4.43853C473.687 4.16792 473.823 3.94563 473.823 3.77167C473.823 3.48173 473.581 3.31742 473.098 3.27877C472.789 3.27877 472.634 3.17245 472.634 2.95983C472.634 2.92117 472.663 2.78587 472.721 2.55391C472.779 2.32196 472.827 2.17699 472.866 2.119C472.924 2.02235 473.088 1.97403 473.359 1.97403C473.436 1.97403 473.774 1.98369 474.374 2.00302C474.973 2.02235 475.746 2.03202 476.693 2.03202C477.138 2.03202 477.602 2.02235 478.085 2.00302C478.568 1.98369 478.858 1.97403 478.955 1.97403C479.341 1.97403 479.535 2.07068 479.535 2.26397C479.535 2.68922 479.457 2.97916 479.303 3.1338C479.245 3.23044 479.061 3.27877 478.752 3.27877C477.302 3.37541 475.988 3.86831 474.808 4.75747C474.499 4.95076 473.823 5.45333 472.779 6.26516C471.735 7.077 470.769 7.84051 469.879 8.5557L468.517 9.62849L468.778 10.2664C468.952 10.6916 469.222 11.3391 469.59 12.209C469.957 13.0788 470.295 13.9003 470.604 14.6735C472.054 18.0948 472.827 19.8634 472.924 19.9794C472.963 20.0181 473.011 20.0567 473.069 20.0954C473.339 20.2887 473.832 20.395 474.548 20.4143H475.156C475.272 20.569 475.33 20.6559 475.33 20.6753C475.33 20.6946 475.301 20.8686 475.243 21.1972C475.166 21.4484 475.069 21.6321 474.953 21.748H474.635C473.861 21.6901 472.943 21.6611 471.88 21.6611C469.522 21.6611 468.198 21.6901 467.908 21.748H467.618C467.502 21.6321 467.444 21.5451 467.444 21.4871C467.444 21.4291 467.463 21.2551 467.502 20.9652C467.579 20.7139 467.637 20.5593 467.676 20.5013C467.715 20.4433 467.821 20.4143 467.995 20.4143H468.082C469.048 20.4143 469.532 20.1727 469.532 19.6895C469.532 19.6121 469.271 18.9356 468.749 17.6599C468.227 16.3841 467.918 15.6593 467.821 15.4853L466.139 11.4841L464.168 13.0208L462.196 14.5575L461.529 17.254C461.085 19.0323 460.862 19.9697 460.862 20.0664C460.862 20.2017 460.94 20.2887 461.094 20.3273C461.249 20.366 461.732 20.395 462.544 20.4143H463.443C463.559 20.5883 463.617 20.6946 463.617 20.7333C463.617 21.0425 463.549 21.3325 463.414 21.6031C463.317 21.6997 463.162 21.748 462.95 21.748C462.892 21.748 462.534 21.7384 461.877 21.7191C461.22 21.6997 460.253 21.6901 458.978 21.6901C457.779 21.6901 456.861 21.6901 456.223 21.6901C455.585 21.6901 455.237 21.6997 455.179 21.7191C454.831 21.7191 454.658 21.6224 454.658 21.4291C454.658 21.3905 454.687 21.2551 454.745 21.0232C454.822 20.7139 454.899 20.54 454.976 20.5013C455.054 20.4626 455.276 20.4336 455.643 20.4143C456.165 20.4143 456.745 20.3853 457.383 20.3273C457.654 20.2693 457.837 20.1534 457.934 19.9794C457.992 19.9021 458.688 17.2153 460.021 11.919C461.355 6.62276 462.022 3.82965 462.022 3.53971Z" fill="black"/>
<path d="M484.985 3.2788C484.328 3.2788 483.98 3.24014 483.942 3.16282C483.922 3.12417 483.913 3.04685 483.913 2.93087C483.913 2.46696 484.019 2.14803 484.232 1.97406C484.27 1.95473 484.415 1.94507 484.666 1.94507C485.71 2.00306 486.938 2.03205 488.349 2.03205C491.074 2.03205 492.64 2.00306 493.046 1.94507H493.394C493.51 2.06105 493.568 2.14803 493.568 2.20602C493.568 2.26401 493.548 2.43797 493.51 2.72791C493.413 3.01785 493.326 3.20148 493.249 3.2788H492.147C490.813 3.29813 490.03 3.38511 489.798 3.53975C489.663 3.61707 489.528 3.88768 489.393 4.35159C489.257 4.81549 488.61 7.36698 487.45 12.006C487.141 13.2625 486.812 14.5962 486.464 16.0072C486.116 17.4183 485.855 18.4814 485.681 19.1966L485.42 20.2404C485.42 20.3177 485.507 20.3564 485.681 20.3564C485.855 20.3564 486.425 20.3757 487.392 20.4144H487.885C488.503 20.4144 488.996 20.4047 489.364 20.3854C489.731 20.366 490.204 20.2984 490.784 20.1824C491.364 20.0664 491.847 19.8925 492.234 19.6605C492.621 19.4286 493.046 19.1 493.51 18.6747C493.974 18.2495 494.38 17.7179 494.727 17.08C495.037 16.5001 495.327 15.8526 495.597 15.1374C495.868 14.4222 496.032 14.0163 496.09 13.9197C496.187 13.8617 496.351 13.8327 496.583 13.8327H496.96C497.076 14.0066 497.134 14.113 497.134 14.1516C497.134 14.1903 496.941 14.7605 496.554 15.8623C496.167 16.964 495.742 18.1238 495.278 19.3416C494.814 20.5593 494.563 21.2745 494.524 21.4871C494.486 21.5838 494.447 21.6418 494.409 21.6611C494.37 21.6804 494.215 21.7094 493.945 21.7481C493.674 21.7867 493.258 21.7964 492.698 21.7771C492.485 21.7771 491.751 21.7771 490.494 21.7771C489.238 21.7771 488.039 21.7674 486.899 21.7481H481.738C480.114 21.7481 479.303 21.6514 479.303 21.4581C479.303 21.3228 479.322 21.1875 479.361 21.0522C479.457 20.685 479.554 20.482 479.65 20.4433C479.728 20.424 479.873 20.4144 480.085 20.4144H480.259C480.781 20.4144 481.361 20.3854 481.999 20.3274C482.27 20.2694 482.453 20.1534 482.55 19.9794C482.608 19.9021 483.304 17.2153 484.637 11.9191C485.971 6.62279 486.638 3.82969 486.638 3.53975C486.638 3.40444 486.087 3.31746 484.985 3.2788Z" fill="black"/>
<path d="M500.845 14.4996C500.845 13.1659 500.942 11.8998 501.135 10.7014C501.328 9.50296 501.551 8.46884 501.802 7.59901C502.053 6.72919 502.411 5.87869 502.875 5.04753C503.339 4.21636 503.706 3.56882 503.977 3.10492C504.247 2.64101 504.653 2.13844 505.194 1.59722C505.736 1.056 506.055 0.727395 506.151 0.611418C506.248 0.495441 506.489 0.292482 506.876 0.0025406H507.253H507.369C507.64 0.0025406 507.775 0.0895231 507.775 0.263488C507.775 0.321476 507.611 0.524436 507.282 0.872366C506.953 1.2203 506.557 1.73253 506.093 2.40906C505.629 3.08559 505.156 3.91675 504.672 4.90255C504.189 5.88836 503.783 7.22209 503.455 8.90375C503.126 10.5854 502.962 12.4507 502.962 14.4996C502.962 16.5485 503.126 18.4042 503.455 20.0665C503.783 21.7288 504.18 23.0722 504.643 24.0967C505.107 25.1212 505.581 25.9523 506.064 26.5902C506.547 27.2281 506.953 27.7403 507.282 28.1269C507.611 28.5135 507.775 28.7164 507.775 28.7358C507.775 28.9097 507.63 28.9967 507.34 28.9967H507.253H506.876L506.064 28.3008C504.247 26.6578 502.923 24.6089 502.092 22.1541C501.261 19.6992 500.845 17.1478 500.845 14.4996Z" fill="black"/>
<path d="M510.065 13.4267C510.085 13.3687 510.104 13.2914 510.123 13.1948C510.143 13.0981 510.191 12.8855 510.268 12.5569C510.346 12.2283 510.442 11.9287 510.558 11.6581C510.674 11.3875 510.819 11.0685 510.993 10.7013C511.167 10.334 511.36 10.0441 511.573 9.83145C511.786 9.61883 512.037 9.40621 512.327 9.19358C512.617 8.98096 512.936 8.89398 513.284 8.93263C514.733 8.93263 515.661 9.55118 516.067 10.7883L516.357 10.5273C517.556 9.46419 518.696 8.93263 519.778 8.93263C521.035 8.93263 522.021 9.38688 522.736 10.2954C523.451 11.2038 523.809 12.3056 523.809 13.6007C523.809 15.6883 523.074 17.6116 521.605 19.3705C520.136 21.1295 518.474 22.0187 516.618 22.038C516.193 22.038 515.816 21.98 515.487 21.864C515.275 21.7674 515.052 21.6224 514.82 21.4291C514.588 21.2358 514.405 21.0715 514.27 20.9362L514.067 20.7043C514.047 20.7236 513.835 21.5644 513.429 23.2268C513.023 24.8891 512.82 25.7299 512.82 25.7493C512.82 25.8652 512.897 25.9329 513.052 25.9522C513.206 25.9715 513.564 26.0005 514.125 26.0392H514.849C514.965 26.1745 515.023 26.2615 515.023 26.3001C515.023 26.3388 514.994 26.5128 514.936 26.822C514.878 27.054 514.82 27.199 514.762 27.2569C514.704 27.3149 514.579 27.3536 514.386 27.3729C514.347 27.3729 514.241 27.3729 514.067 27.3729C513.893 27.3729 513.564 27.3633 513.081 27.3439C512.598 27.3246 511.998 27.3149 511.283 27.3149C509.93 27.3149 509.07 27.3343 508.703 27.3729H508.471C508.335 27.2376 508.268 27.1313 508.268 27.054C508.306 26.5321 508.432 26.1938 508.645 26.0392H509.225C509.882 26.0199 510.259 25.9039 510.355 25.6913C510.413 25.5753 511.003 23.2654 512.124 18.7617C513.245 14.2579 513.835 11.8707 513.893 11.6001C513.912 11.5035 513.922 11.3681 513.922 11.1942C513.922 10.4017 513.68 10.0054 513.197 10.0054C512.772 10.0054 512.414 10.276 512.124 10.8173C511.834 11.3585 511.612 11.948 511.457 12.5859C511.302 13.2238 511.187 13.5717 511.109 13.6297C511.071 13.6683 510.916 13.6877 510.645 13.6877H510.239C510.123 13.5717 510.065 13.4847 510.065 13.4267ZM514.559 18.7907C514.985 20.2597 515.7 20.9942 516.705 20.9942C517.285 20.9942 517.846 20.7719 518.387 20.3273C518.928 19.8828 519.373 19.3222 519.72 18.6457C520.068 17.9885 520.416 16.9447 520.764 15.5143C521.112 14.0839 521.296 13.0208 521.315 12.325V12.151C521.315 10.7206 520.726 10.0054 519.546 10.0054C519.334 10.0054 519.121 10.0344 518.909 10.0924C518.696 10.1504 518.483 10.2374 518.271 10.3533C518.058 10.4693 517.865 10.595 517.691 10.7303C517.517 10.8656 517.353 11.0105 517.198 11.1652C517.043 11.3198 516.898 11.4648 516.763 11.6001C516.628 11.7354 516.521 11.8707 516.444 12.006C516.367 12.1413 516.289 12.238 516.212 12.296L516.125 12.4119C516.125 12.4313 516.096 12.5666 516.038 12.8179C515.98 13.0691 515.874 13.4944 515.719 14.0936C515.565 14.6928 515.429 15.1954 515.313 15.6013C514.811 17.6502 514.559 18.7133 514.559 18.7907Z" fill="black"/>
<path d="M526.708 14.4996C526.708 13.1659 526.805 11.8998 526.998 10.7014C527.191 9.50296 527.414 8.46884 527.665 7.59901C527.916 6.72919 528.274 5.87869 528.738 5.04753C529.202 4.21636 529.569 3.56882 529.839 3.10492C530.11 2.64101 530.516 2.13844 531.057 1.59722C531.598 1.056 531.917 0.727395 532.014 0.611418C532.111 0.495441 532.352 0.292482 532.739 0.0025406H533.116H533.232C533.502 0.0025406 533.638 0.0895231 533.638 0.263488C533.638 0.321476 533.473 0.524436 533.145 0.872366C532.816 1.2203 532.42 1.73253 531.956 2.40906C531.492 3.08559 531.018 3.91675 530.535 4.90255C530.052 5.88836 529.646 7.22209 529.317 8.90375C528.989 10.5854 528.825 12.4507 528.825 14.4996C528.825 16.5485 528.989 18.4042 529.317 20.0665C529.646 21.7288 530.042 23.0722 530.506 24.0967C530.97 25.1212 531.444 25.9523 531.927 26.5902C532.41 27.2281 532.816 27.7403 533.145 28.1269C533.473 28.5135 533.638 28.7164 533.638 28.7358C533.638 28.9097 533.493 28.9967 533.203 28.9967H533.116H532.739L531.927 28.3008C530.11 26.6578 528.786 24.6089 527.955 22.1541C527.124 19.6992 526.708 17.1478 526.708 14.4996Z" fill="black"/>
<path d="M537.523 14.4996C537.523 14.0357 537.687 13.6298 538.016 13.2819C538.344 12.9339 538.76 12.76 539.263 12.76C539.726 12.76 540.132 12.9146 540.48 13.2239C540.828 13.5331 541.012 13.9487 541.031 14.4706C541.031 14.9538 540.867 15.3694 540.538 15.7174C540.21 16.0653 539.794 16.2393 539.292 16.2393C538.789 16.2393 538.373 16.075 538.045 15.7464C537.716 15.4178 537.542 15.0022 537.523 14.4996Z" fill="black"/>
<path d="M555.406 28.9677H555.348C555.117 28.9677 554.943 28.8323 554.827 28.5617V14.4706L554.856 0.379408C555.049 0.128125 555.233 0.00248389 555.406 0.00248389C555.658 0.00248389 555.851 0.147455 555.986 0.437396V28.5617C555.832 28.8323 555.658 28.9677 555.464 28.9677H555.406Z" fill="black"/>
<path d="M568.996 13.3688C569.131 12.5569 569.653 11.6195 570.562 10.5563C571.47 9.49321 572.591 8.95199 573.925 8.93266C574.602 8.93266 575.22 9.10662 575.781 9.45455C576.341 9.80248 576.757 10.2374 577.027 10.7593C577.839 9.54154 578.815 8.93266 579.956 8.93266C580.671 8.93266 581.29 9.14528 581.811 9.57053C582.333 9.99578 582.604 10.566 582.623 11.2812C582.623 11.8417 582.488 12.296 582.217 12.6439C581.947 12.9918 581.686 13.2045 581.435 13.2818C581.183 13.3591 580.961 13.3978 580.768 13.3978C580.4 13.3978 580.101 13.2914 579.869 13.0788C579.637 12.8662 579.521 12.5859 579.521 12.238C579.521 11.3488 580.004 10.74 580.971 10.4114C580.758 10.1601 580.371 10.0344 579.811 10.0344C579.56 10.0344 579.376 10.0538 579.26 10.0924C578.525 10.4017 577.984 11.0396 577.636 12.006C576.477 16.2778 575.897 18.7713 575.897 19.4865C575.897 20.0278 576.051 20.4143 576.361 20.6463C576.67 20.8783 577.008 20.9942 577.375 20.9942C578.091 20.9942 578.796 20.6753 579.492 20.0374C580.188 19.3996 580.661 18.6167 580.913 17.6889C580.971 17.4956 581.029 17.3893 581.087 17.37C581.145 17.3506 581.299 17.3313 581.55 17.312H581.666C581.956 17.312 582.101 17.3893 582.101 17.5439C582.101 17.5633 582.082 17.6696 582.043 17.8629C581.734 18.9646 581.135 19.9408 580.246 20.7913C579.357 21.6418 578.322 22.067 577.143 22.067C575.79 22.067 574.766 21.4581 574.07 20.2404C573.277 21.4388 572.369 22.038 571.345 22.038H571.171C570.223 22.038 569.547 21.7867 569.141 21.2842C568.735 20.7816 568.522 20.25 568.503 19.6895C568.503 19.071 568.687 18.5684 569.054 18.1818C569.421 17.7952 569.856 17.6019 570.359 17.6019C571.19 17.6019 571.605 18.0078 571.605 18.8197C571.605 19.2063 571.49 19.5445 571.258 19.8345C571.026 20.1244 570.803 20.3177 570.591 20.4143C570.378 20.511 570.252 20.5593 570.214 20.5593L570.127 20.5883C570.127 20.6076 570.185 20.6463 570.301 20.7043C570.417 20.7623 570.571 20.8299 570.765 20.9072C570.958 20.9846 571.142 21.0136 571.316 20.9942C572.011 20.9942 572.611 20.5593 573.113 19.6895C573.287 19.3802 573.509 18.723 573.78 17.7179C574.051 16.7128 574.321 15.669 574.592 14.5865C574.862 13.5041 575.017 12.8662 575.056 12.6729C575.152 12.151 575.201 11.7741 575.201 11.5421C575.201 11.0009 575.056 10.6143 574.766 10.3824C574.476 10.1504 574.147 10.0344 573.78 10.0344C573.007 10.0344 572.282 10.3437 571.605 10.9623C570.929 11.5808 570.455 12.3733 570.185 13.3398C570.146 13.5137 570.098 13.6104 570.04 13.6297C569.982 13.649 569.827 13.6684 569.576 13.6877H569.17C569.054 13.5717 568.996 13.4654 568.996 13.3688Z" fill="black"/>
<path d="M585.813 0.0315348L585.929 0.0025406C586.025 0.0025406 586.122 0.0025406 586.219 0.0025406H586.566L587.378 0.698401C589.195 2.3414 590.519 4.39032 591.351 6.84516C592.182 9.3 592.597 11.8515 592.597 14.4996C592.597 15.814 592.501 17.0801 592.307 18.2979C592.114 19.5156 591.892 20.5497 591.64 21.4002C591.389 22.2507 591.032 23.1012 590.568 23.9517C590.104 24.8022 589.737 25.4498 589.466 25.8943C589.195 26.3389 588.799 26.8318 588.277 27.373C587.755 27.9143 587.446 28.2332 587.349 28.3298C587.253 28.4265 587.03 28.6101 586.682 28.8807C586.624 28.9387 586.586 28.9774 586.566 28.9967H586.219C586.064 28.9967 585.958 28.9967 585.9 28.9967C585.842 28.9967 585.793 28.9677 585.755 28.9097C585.716 28.8517 585.687 28.7648 585.668 28.6488C585.687 28.6294 585.793 28.5038 585.987 28.2719C588.983 25.1598 590.481 20.5691 590.481 14.4996C590.481 8.43018 588.983 3.83943 585.987 0.727395C585.793 0.495441 585.687 0.3698 585.668 0.350471C585.668 0.195835 585.716 0.0895231 585.813 0.0315348Z" fill="black"/>
<path d="M607.263 0.408459C607.359 0.137847 607.552 0.0025406 607.842 0.0025406C608.055 0.0025406 608.219 0.108853 608.335 0.321476C608.374 0.398794 608.393 5.12484 608.393 14.4996C608.393 23.8744 608.374 28.6005 608.335 28.6778C608.219 28.8904 608.045 28.9967 607.813 28.9967C607.659 28.9967 607.523 28.9387 607.407 28.8227L607.378 28.7937C607.301 28.7551 607.263 28.1365 607.263 26.9381C607.263 25.7397 607.253 21.5935 607.234 14.4996C607.234 5.20216 607.243 0.505106 607.263 0.408459ZM612.945 0.321476C613.042 0.108853 613.206 0.0025406 613.438 0.0025406C613.574 0.0025406 613.719 0.0605289 613.873 0.176506L613.902 0.2055C613.979 0.244159 614.018 0.862701 614.018 2.06113C614.018 3.25955 614.028 7.40572 614.047 14.4996C614.066 21.5935 614.066 25.73 614.047 26.9091C614.028 28.0882 613.979 28.7164 613.902 28.7937L613.873 28.8227C613.757 28.9387 613.622 28.9967 613.467 28.9967C613.235 28.9967 613.061 28.8904 612.945 28.6778C612.907 28.6005 612.887 23.8744 612.887 14.4996C612.887 5.12484 612.907 0.398794 612.945 0.321476Z" fill="black"/>
<path d="M626.625 13.4267C626.644 13.3687 626.663 13.2914 626.683 13.1948C626.702 13.0981 626.75 12.8855 626.828 12.5569C626.905 12.2283 627.002 11.9287 627.118 11.6581C627.234 11.3875 627.379 11.0685 627.553 10.7013C627.727 10.334 627.92 10.0441 628.132 9.83145C628.345 9.61883 628.596 9.40621 628.886 9.19358C629.176 8.98096 629.495 8.89398 629.843 8.93263C631.293 8.93263 632.221 9.55118 632.627 10.7883L632.917 10.5273C634.115 9.46419 635.255 8.93263 636.338 8.93263C637.594 8.93263 638.58 9.38688 639.295 10.2954C640.01 11.2038 640.368 12.3056 640.368 13.6007C640.368 15.6883 639.634 17.6116 638.164 19.3705C636.695 21.1295 635.033 22.0187 633.177 22.038C632.752 22.038 632.375 21.98 632.047 21.864C631.834 21.7674 631.612 21.6224 631.38 21.4291C631.148 21.2358 630.964 21.0715 630.829 20.9362L630.626 20.7043C630.607 20.7236 630.394 21.5644 629.988 23.2268C629.582 24.8891 629.379 25.7299 629.379 25.7493C629.379 25.8652 629.457 25.9329 629.611 25.9522C629.766 25.9715 630.123 26.0005 630.684 26.0392H631.409C631.525 26.1745 631.583 26.2615 631.583 26.3001C631.583 26.3388 631.554 26.5128 631.496 26.822C631.438 27.054 631.38 27.199 631.322 27.2569C631.264 27.3149 631.138 27.3536 630.945 27.3729C630.906 27.3729 630.8 27.3729 630.626 27.3729C630.452 27.3729 630.123 27.3633 629.64 27.3439C629.157 27.3246 628.558 27.3149 627.843 27.3149C626.489 27.3149 625.629 27.3343 625.262 27.3729H625.03C624.895 27.2376 624.827 27.1313 624.827 27.054C624.866 26.5321 624.991 26.1938 625.204 26.0392H625.784C626.441 26.0199 626.818 25.9039 626.915 25.6913C626.973 25.5753 627.562 23.2654 628.683 18.7617C629.804 14.2579 630.394 11.8707 630.452 11.6001C630.471 11.5035 630.481 11.3681 630.481 11.1942C630.481 10.4017 630.239 10.0054 629.756 10.0054C629.331 10.0054 628.973 10.276 628.683 10.8173C628.393 11.3585 628.171 11.948 628.017 12.5859C627.862 13.2238 627.746 13.5717 627.669 13.6297C627.63 13.6683 627.475 13.6877 627.205 13.6877H626.799C626.683 13.5717 626.625 13.4847 626.625 13.4267ZM631.119 18.7907C631.544 20.2597 632.259 20.9942 633.264 20.9942C633.844 20.9942 634.405 20.7719 634.946 20.3273C635.487 19.8828 635.932 19.3222 636.28 18.6457C636.628 17.9885 636.976 16.9447 637.324 15.5143C637.672 14.0839 637.855 13.0208 637.875 12.325V12.151C637.875 10.7206 637.285 10.0054 636.106 10.0054C635.893 10.0054 635.681 10.0344 635.468 10.0924C635.255 10.1504 635.043 10.2374 634.83 10.3533C634.618 10.4693 634.424 10.595 634.25 10.7303C634.076 10.8656 633.912 11.0105 633.757 11.1652C633.603 11.3198 633.458 11.4648 633.322 11.6001C633.187 11.7354 633.081 11.8707 633.004 12.006C632.926 12.1413 632.849 12.238 632.772 12.296L632.685 12.4119C632.685 12.4313 632.656 12.5666 632.598 12.8179C632.54 13.0691 632.433 13.4944 632.279 14.0936C632.124 14.6928 631.989 15.1954 631.873 15.6013C631.37 17.6502 631.119 18.7133 631.119 18.7907Z" fill="black"/>
<path d="M643.267 14.4996C643.267 13.1659 643.364 11.8998 643.557 10.7014C643.751 9.50296 643.973 8.46884 644.224 7.59901C644.475 6.72919 644.833 5.87869 645.297 5.04753C645.761 4.21636 646.128 3.56882 646.399 3.10492C646.669 2.64101 647.075 2.13844 647.617 1.59722C648.158 1.056 648.477 0.727395 648.573 0.611418C648.67 0.495441 648.912 0.292482 649.298 0.0025406H649.675H649.791C650.062 0.0025406 650.197 0.0895231 650.197 0.263488C650.197 0.321476 650.033 0.524436 649.704 0.872366C649.375 1.2203 648.979 1.73253 648.515 2.40906C648.051 3.08559 647.578 3.91675 647.095 4.90255C646.611 5.88836 646.205 7.22209 645.877 8.90375C645.548 10.5854 645.384 12.4507 645.384 14.4996C645.384 16.5485 645.548 18.4042 645.877 20.0665C646.205 21.7288 646.602 23.0722 647.066 24.0967C647.53 25.1212 648.003 25.9523 648.486 26.5902C648.97 27.2281 649.375 27.7403 649.704 28.1269C650.033 28.5135 650.197 28.7164 650.197 28.7358C650.197 28.9097 650.052 28.9967 649.762 28.9967H649.675H649.298L648.486 28.3008C646.669 26.6578 645.345 24.6089 644.514 22.1541C643.683 19.6992 643.267 17.1478 643.267 14.4996Z" fill="black"/>
<path d="M654.082 14.4996C654.082 14.0357 654.247 13.6298 654.575 13.2819C654.904 12.9339 655.319 12.76 655.822 12.76C656.286 12.76 656.692 12.9146 657.04 13.2239C657.388 13.5331 657.571 13.9487 657.591 14.4706C657.591 14.9538 657.426 15.3694 657.098 15.7174C656.769 16.0653 656.353 16.2393 655.851 16.2393C655.348 16.2393 654.933 16.075 654.604 15.7464C654.276 15.4178 654.102 15.0022 654.082 14.4996Z" fill="black"/>
<path d="M671.966 28.9677H671.908C671.676 28.9677 671.502 28.8323 671.386 28.5617V14.4706L671.415 0.379408C671.608 0.128125 671.792 0.00248389 671.966 0.00248389C672.217 0.00248389 672.41 0.147455 672.546 0.437396V28.5617C672.391 28.8323 672.217 28.9677 672.024 28.9677H671.966Z" fill="black"/>
<path d="M688.864 2.23507C688.864 2.00311 689.028 1.80015 689.357 1.62619H689.907C691.647 1.68418 692.749 2.16741 693.213 3.0759C693.329 3.36584 693.88 4.89286 694.865 7.65697C695.851 10.4211 696.827 13.1175 697.794 15.7463C698.76 18.3752 699.244 19.7282 699.244 19.8055C699.379 20.1921 699.504 20.5111 699.62 20.7623C699.736 21.0136 699.823 21.1973 699.881 21.3132C699.939 21.4292 699.988 21.5162 700.026 21.5742C700.065 21.6322 700.104 21.6708 700.142 21.6902C700.181 21.7095 700.191 21.7481 700.171 21.8061C700.152 21.8641 700.094 21.9511 699.997 22.0671H698.026C697.543 21.7965 697.233 21.5162 697.098 21.2262C696.963 20.9363 696.47 19.6412 695.619 17.341L694.315 13.7168L693.909 14.1517C693.657 14.4609 693.203 14.9925 692.546 15.7463C691.889 16.5002 691.338 17.1381 690.893 17.66C690.41 18.2205 689.811 18.9164 689.096 19.7475C688.11 20.9073 687.501 21.5838 687.269 21.7771C687.037 21.9704 686.766 22.0767 686.457 22.0961C685.761 22.0961 685.413 21.7868 685.413 21.1683C685.413 20.8397 685.549 20.5304 685.819 20.2404C686.09 19.9505 687.424 18.6458 689.82 16.3262C690.4 15.7657 691.048 15.1375 691.763 14.4416C692.478 13.7457 693.01 13.2239 693.358 12.8759L693.851 12.412C693.851 12.3927 693.367 11.0396 692.401 8.35283C691.434 5.66604 690.913 4.21633 690.835 4.00371C690.449 3.13389 689.956 2.69897 689.357 2.69897C689.028 2.69897 688.864 2.54434 688.864 2.23507Z" fill="black"/>
<path d="M702.694 0.0315348L702.81 0.0025406C702.906 0.0025406 703.003 0.0025406 703.1 0.0025406H703.448L704.259 0.698401C706.076 2.3414 707.401 4.39032 708.232 6.84516C709.063 9.3 709.478 11.8515 709.478 14.4996C709.478 15.814 709.382 17.0801 709.188 18.2979C708.995 19.5156 708.773 20.5497 708.522 21.4002C708.27 22.2507 707.913 23.1012 707.449 23.9517C706.985 24.8022 706.618 25.4498 706.347 25.8943C706.076 26.3389 705.68 26.8318 705.158 27.373C704.636 27.9143 704.327 28.2332 704.23 28.3298C704.134 28.4265 703.912 28.6101 703.564 28.8807C703.506 28.9387 703.467 28.9774 703.448 28.9967H703.1C702.945 28.9967 702.839 28.9967 702.781 28.9967C702.723 28.9967 702.674 28.9677 702.636 28.9097C702.597 28.8517 702.568 28.7648 702.549 28.6488C702.568 28.6294 702.674 28.5038 702.868 28.2719C705.864 25.1598 707.362 20.5691 707.362 14.4996C707.362 8.43018 705.864 3.83943 702.868 0.727395C702.674 0.495441 702.568 0.3698 702.549 0.350471C702.549 0.195835 702.597 0.0895231 702.694 0.0315348Z" fill="black"/>
<path d="M713.973 0.0315348L714.089 0.0025406C714.185 0.0025406 714.282 0.0025406 714.379 0.0025406H714.726L715.538 0.698401C717.355 2.3414 718.679 4.39032 719.51 6.84516C720.342 9.3 720.757 11.8515 720.757 14.4996C720.757 15.814 720.661 17.0801 720.467 18.2979C720.274 19.5156 720.052 20.5497 719.8 21.4002C719.549 22.2507 719.192 23.1012 718.728 23.9517C718.264 24.8022 717.896 25.4498 717.626 25.8943C717.355 26.3389 716.959 26.8318 716.437 27.373C715.915 27.9143 715.606 28.2332 715.509 28.3298C715.413 28.4265 715.19 28.6101 714.842 28.8807C714.784 28.9387 714.746 28.9774 714.726 28.9967H714.379C714.224 28.9967 714.118 28.9967 714.06 28.9967C714.002 28.9967 713.953 28.9677 713.915 28.9097C713.876 28.8517 713.847 28.7648 713.828 28.6488C713.847 28.6294 713.953 28.5038 714.147 28.2719C717.143 25.1598 718.641 20.5691 718.641 14.4996C718.641 8.43018 717.143 3.83943 714.147 0.727395C713.953 0.495441 713.847 0.3698 713.828 0.350471C713.828 0.195835 713.876 0.0895231 713.973 0.0315348Z" fill="black"/>
<path d="M751.105 3.30779C751.26 3.30779 751.395 3.36577 751.511 3.48175C751.627 3.59773 751.685 3.7427 751.685 3.91666C751.685 4.09063 751.618 4.22593 751.482 4.32258C751.463 4.34191 748.854 5.58866 743.654 8.06283L735.942 11.7161L743.132 15.1374C748.699 17.7662 751.521 19.1289 751.598 19.2256C751.656 19.3416 751.685 19.4479 751.685 19.5445C751.685 19.8924 751.511 20.0857 751.163 20.1244H750.989L742.639 16.1812C737.034 13.5331 734.212 12.1897 734.173 12.151C734.038 12.0544 733.97 11.8901 733.97 11.6581C733.989 11.4455 734.115 11.2812 734.347 11.1652C734.501 11.0879 737.266 9.78315 742.639 7.25099C748.013 4.71884 750.748 3.42376 750.845 3.36577C750.922 3.32712 751.009 3.30779 751.105 3.30779ZM733.999 25.1694C733.999 24.9761 734.144 24.7828 734.434 24.5895H751.221C751.531 24.7055 751.685 24.8988 751.685 25.1694C751.685 25.4013 751.54 25.5946 751.25 25.7493H734.405C734.134 25.614 733.999 25.4207 733.999 25.1694Z" fill="black"/>
<path d="M763.393 20.4144H763.799C764.553 20.4144 765.007 20.2791 765.162 20.0085V19.7766C765.162 19.6026 765.162 19.3803 765.162 19.1097C765.162 18.8391 765.162 18.5202 765.162 18.1529C765.162 17.7856 765.171 17.37 765.191 16.9061C765.21 16.4422 765.21 15.959 765.191 15.4564C765.171 14.9539 765.171 14.4223 765.191 13.8618C765.21 13.3012 765.21 12.7503 765.191 12.2091C765.191 11.4939 765.191 10.7401 765.191 9.94754C765.191 9.15504 765.191 8.43018 765.191 7.77298C765.191 7.11578 765.191 6.5359 765.191 6.03333C765.191 5.53077 765.181 5.10552 765.162 4.75759C765.142 4.40966 765.142 4.24536 765.162 4.26469C765.104 3.89743 764.969 3.65581 764.756 3.53983C764.543 3.42386 764.108 3.33687 763.451 3.27889H762.929V2.61202C762.929 2.16744 762.949 1.94515 762.987 1.94515L763.277 1.91616C763.47 1.89683 763.751 1.8775 764.118 1.85817C764.485 1.83884 764.843 1.81951 765.191 1.80018C765.519 1.78085 765.877 1.76152 766.264 1.74219C766.65 1.72287 766.94 1.69387 767.133 1.65521C767.327 1.61655 767.433 1.60689 767.452 1.62622H767.539V10.7594C767.539 16.8868 767.549 19.9699 767.568 20.0085C767.646 20.1632 767.762 20.2695 767.916 20.3275C768.322 20.3854 768.796 20.4144 769.337 20.4144H769.801V21.7482H769.569L768.902 21.7192C768.457 21.6998 767.984 21.6902 767.481 21.6902C766.979 21.6902 766.612 21.6805 766.38 21.6612C766.148 21.6419 765.78 21.6419 765.278 21.6612C764.775 21.6805 764.292 21.6998 763.828 21.7192L763.161 21.7482H762.929V20.4144H763.393Z" fill="black"/>
<path d="M771.048 15.5434C771.048 13.7071 771.676 12.1221 772.932 10.7884C774.189 9.45462 775.706 8.77809 777.484 8.75876C779.224 8.75876 780.722 9.41596 781.978 10.7304C783.235 12.0448 783.873 13.6394 783.892 15.5144C783.892 17.3507 783.273 18.8971 782.036 20.1535C780.799 21.4099 779.282 22.0381 777.484 22.0381C775.609 22.0381 774.073 21.3905 772.874 20.0955C771.676 18.8004 771.067 17.283 771.048 15.5434ZM777.484 20.8783C779.843 20.8783 781.022 19.303 781.022 16.1523V15.2245V14.4996C781.022 14.0744 781.012 13.7071 780.993 13.3978C780.973 13.0886 780.906 12.7213 780.79 12.296C780.674 11.8708 780.519 11.5229 780.326 11.2523C780.132 10.9816 779.833 10.711 779.427 10.4404C779.021 10.1698 778.547 9.97651 778.006 9.86054C777.91 9.84121 777.755 9.83154 777.542 9.83154C776.962 9.83154 776.412 9.94752 775.89 10.1795C775.058 10.6047 774.517 11.1943 774.266 11.9481C774.015 12.702 773.889 13.5911 773.889 14.6156V15.1955C773.889 17.0511 774.073 18.3558 774.44 19.1097C775.058 20.2888 776.073 20.8783 777.484 20.8783Z" fill="black"/>
<path d="M794.272 9.88954C795.122 9.03904 796.089 8.61379 797.171 8.61379C797.751 8.61379 798.167 8.79742 798.418 9.16468C798.669 9.53194 798.795 9.8992 798.795 10.2665C798.795 10.5371 798.708 10.7787 798.534 10.9913C798.36 11.2039 798.099 11.3102 797.751 11.3102C797.113 11.3102 796.756 11.0203 796.678 10.4404C796.64 10.1698 796.669 9.96685 796.765 9.83155C796.765 9.81222 796.775 9.78322 796.794 9.74456V9.71557C796.253 9.77356 795.741 9.98618 795.258 10.3534C795.103 10.4501 795.026 10.5177 795.026 10.5564C795.026 10.5757 795.064 10.6241 795.142 10.7014C795.219 10.7787 795.306 10.8947 795.403 11.0493C795.499 11.2039 795.606 11.3779 795.722 11.5712C795.838 11.7645 795.925 12.0158 795.983 12.325C796.041 12.6343 796.079 12.9533 796.099 13.2819C796.099 14.4803 795.625 15.4951 794.678 16.3262C793.731 17.1574 792.561 17.5827 791.17 17.602C790.203 17.602 789.246 17.3314 788.299 16.7901C788.087 17.1381 787.98 17.5053 787.98 17.8919C787.98 18.5685 788.232 19.071 788.734 19.3996C788.908 19.5156 789.072 19.5736 789.227 19.5736C789.382 19.5736 790.077 19.5929 791.315 19.6316C792.938 19.6509 793.982 19.7089 794.446 19.8055C795.625 19.9795 796.553 20.3758 797.229 20.9943C797.983 21.7481 798.36 22.6953 798.36 23.8357C798.36 25.1308 797.606 26.1263 796.099 26.8221C794.939 27.4213 793.566 27.7209 791.981 27.7209C790.377 27.7209 788.995 27.4213 787.835 26.8221C786.328 26.1456 785.574 25.1791 785.574 23.9227C785.574 23.2269 785.777 22.647 786.183 22.1831C786.589 21.7192 786.994 21.4002 787.4 21.2263L787.719 21.0523C787.023 20.4531 786.676 19.6412 786.676 18.6168C786.676 17.7083 786.956 16.8868 787.516 16.1523C786.666 15.3018 786.241 14.345 786.241 13.2819C786.241 12.0641 786.724 11.0396 787.69 10.2085C788.657 9.37731 789.826 8.95206 791.199 8.93273C792.184 8.93273 793.103 9.18401 793.953 9.68658L794.272 9.88954ZM793.402 11.8032C793.306 11.2619 793.054 10.8367 792.648 10.5274C792.242 10.2181 791.74 10.0538 791.141 10.0345C790.58 10.0345 790.097 10.1891 789.691 10.4984C789.285 10.8077 789.034 11.2426 788.937 11.8032C788.879 12.1318 788.85 12.6247 788.85 13.2819C788.85 14.1323 788.918 14.7606 789.053 15.1665C789.188 15.5724 789.478 15.9107 789.923 16.1813C790.251 16.3746 790.667 16.4712 791.17 16.4712C791.595 16.4712 791.962 16.4036 792.271 16.2683C792.581 16.1329 792.803 15.959 792.938 15.7464C793.074 15.5337 793.18 15.3404 793.257 15.1665C793.335 14.9925 793.383 14.8475 793.402 14.7316C793.46 14.4223 793.489 13.9391 793.489 13.2819C793.489 12.6247 793.46 12.1318 793.402 11.8032ZM796.418 23.9227C796.418 23.4395 796.282 23.0432 796.012 22.734C795.741 22.4247 795.345 22.2024 794.823 22.0671C794.301 21.9318 793.827 21.8448 793.402 21.8061C792.977 21.7675 792.455 21.7481 791.836 21.7481H791.054C789.759 21.7481 788.985 21.8061 788.734 21.9221C788.348 22.0961 788.048 22.3667 787.835 22.734C787.623 23.1012 787.507 23.4878 787.487 23.8937C787.487 24.087 787.545 24.3093 787.661 24.5606C787.777 24.8119 787.98 25.1018 788.27 25.4304C788.56 25.759 789.024 26.0296 789.662 26.2422C790.3 26.4549 791.073 26.5708 791.981 26.5902C793.315 26.5902 794.388 26.3196 795.2 25.7783C796.012 25.2371 796.418 24.6186 796.418 23.9227Z" fill="black"/>
<path d="M801.955 14.4996C801.955 13.1659 802.052 11.8998 802.245 10.7014C802.439 9.50296 802.661 8.46884 802.912 7.59901C803.163 6.72919 803.521 5.87869 803.985 5.04753C804.449 4.21636 804.816 3.56882 805.087 3.10492C805.357 2.64101 805.763 2.13844 806.304 1.59722C806.846 1.056 807.165 0.727395 807.261 0.611418C807.358 0.495441 807.6 0.292482 807.986 0.0025406H808.363H808.479C808.75 0.0025406 808.885 0.0895231 808.885 0.263488C808.885 0.321476 808.721 0.524436 808.392 0.872366C808.063 1.2203 807.667 1.73253 807.203 2.40906C806.739 3.08559 806.266 3.91675 805.783 4.90255C805.299 5.88836 804.893 7.22209 804.565 8.90375C804.236 10.5854 804.072 12.4507 804.072 14.4996C804.072 16.5485 804.236 18.4042 804.565 20.0665C804.893 21.7288 805.29 23.0722 805.754 24.0967C806.217 25.1212 806.691 25.9523 807.174 26.5902C807.658 27.2281 808.063 27.7403 808.392 28.1269C808.721 28.5135 808.885 28.7164 808.885 28.7358C808.885 28.9097 808.74 28.9967 808.45 28.9967H808.363H807.986L807.174 28.3008C805.357 26.6578 804.033 24.6089 803.202 22.1541C802.371 19.6992 801.955 17.1478 801.955 14.4996Z" fill="black"/>
<path d="M811.176 13.4267C811.195 13.3687 811.214 13.2914 811.233 13.1948C811.253 13.0981 811.301 12.8855 811.378 12.5569C811.456 12.2283 811.552 11.9287 811.668 11.6581C811.784 11.3875 811.929 11.0685 812.103 10.7013C812.277 10.334 812.471 10.0441 812.683 9.83145C812.896 9.61883 813.147 9.40621 813.437 9.19358C813.727 8.98096 814.046 8.89398 814.394 8.93263C815.844 8.93263 816.771 9.55118 817.177 10.7883L817.467 10.5273C818.666 9.46419 819.806 8.93263 820.889 8.93263C822.145 8.93263 823.131 9.38688 823.846 10.2954C824.561 11.2038 824.919 12.3056 824.919 13.6007C824.919 15.6883 824.184 17.6116 822.715 19.3705C821.246 21.1295 819.584 22.0187 817.728 22.038C817.303 22.038 816.926 21.98 816.597 21.864C816.385 21.7674 816.163 21.6224 815.931 21.4291C815.699 21.2358 815.515 21.0715 815.38 20.9362L815.177 20.7043C815.157 20.7236 814.945 21.5644 814.539 23.2268C814.133 24.8891 813.93 25.7299 813.93 25.7493C813.93 25.8652 814.007 25.9329 814.162 25.9522C814.317 25.9715 814.674 26.0005 815.235 26.0392H815.96C816.076 26.1745 816.134 26.2615 816.134 26.3001C816.134 26.3388 816.105 26.5128 816.047 26.822C815.989 27.054 815.931 27.199 815.873 27.2569C815.815 27.3149 815.689 27.3536 815.496 27.3729C815.457 27.3729 815.351 27.3729 815.177 27.3729C815.003 27.3729 814.674 27.3633 814.191 27.3439C813.708 27.3246 813.108 27.3149 812.393 27.3149C811.04 27.3149 810.18 27.3343 809.813 27.3729H809.581C809.446 27.2376 809.378 27.1313 809.378 27.054C809.417 26.5321 809.542 26.1938 809.755 26.0392H810.335C810.992 26.0199 811.369 25.9039 811.465 25.6913C811.523 25.5753 812.113 23.2654 813.234 18.7617C814.355 14.2579 814.945 11.8707 815.003 11.6001C815.022 11.5035 815.032 11.3681 815.032 11.1942C815.032 10.4017 814.79 10.0054 814.307 10.0054C813.882 10.0054 813.524 10.276 813.234 10.8173C812.944 11.3585 812.722 11.948 812.567 12.5859C812.413 13.2238 812.297 13.5717 812.219 13.6297C812.181 13.6683 812.026 13.6877 811.755 13.6877H811.349C811.233 13.5717 811.176 13.4847 811.176 13.4267ZM815.67 18.7907C816.095 20.2597 816.81 20.9942 817.815 20.9942C818.395 20.9942 818.956 20.7719 819.497 20.3273C820.038 19.8828 820.483 19.3222 820.831 18.6457C821.178 17.9885 821.526 16.9447 821.874 15.5143C822.222 14.0839 822.406 13.0208 822.425 12.325V12.151C822.425 10.7206 821.836 10.0054 820.657 10.0054C820.444 10.0054 820.231 10.0344 820.019 10.0924C819.806 10.1504 819.593 10.2374 819.381 10.3533C819.168 10.4693 818.975 10.595 818.801 10.7303C818.627 10.8656 818.463 11.0105 818.308 11.1652C818.153 11.3198 818.008 11.4648 817.873 11.6001C817.738 11.7354 817.632 11.8707 817.554 12.006C817.477 12.1413 817.4 12.238 817.322 12.296L817.235 12.4119C817.235 12.4313 817.206 12.5666 817.148 12.8179C817.09 13.0691 816.984 13.4944 816.829 14.0936C816.675 14.6928 816.539 15.1954 816.423 15.6013C815.921 17.6502 815.67 18.7133 815.67 18.7907Z" fill="black"/>
<path d="M827.818 14.4996C827.818 13.1659 827.915 11.8998 828.108 10.7014C828.301 9.50296 828.524 8.46884 828.775 7.59901C829.026 6.72919 829.384 5.87869 829.848 5.04753C830.312 4.21636 830.679 3.56882 830.95 3.10492C831.22 2.64101 831.626 2.13844 832.167 1.59722C832.709 1.056 833.028 0.727395 833.124 0.611418C833.221 0.495441 833.462 0.292482 833.849 0.0025406H834.226H834.342C834.613 0.0025406 834.748 0.0895231 834.748 0.263488C834.748 0.321476 834.584 0.524436 834.255 0.872366C833.926 1.2203 833.53 1.73253 833.066 2.40906C832.602 3.08559 832.129 3.91675 831.645 4.90255C831.162 5.88836 830.756 7.22209 830.428 8.90375C830.099 10.5854 829.935 12.4507 829.935 14.4996C829.935 16.5485 830.099 18.4042 830.428 20.0665C830.756 21.7288 831.153 23.0722 831.616 24.0967C832.08 25.1212 832.554 25.9523 833.037 26.5902C833.52 27.2281 833.926 27.7403 834.255 28.1269C834.584 28.5135 834.748 28.7164 834.748 28.7358C834.748 28.9097 834.603 28.9967 834.313 28.9967H834.226H833.849L833.037 28.3008C831.22 26.6578 829.896 24.6089 829.065 22.1541C828.234 19.6992 827.818 17.1478 827.818 14.4996Z" fill="black"/>
<path d="M836.98 13.4268C836.98 13.1562 837.125 12.6922 837.415 12.035C837.705 11.3778 838.169 10.6916 838.807 9.97646C839.445 9.26127 840.16 8.91334 840.953 8.93267C841.745 8.93267 842.383 9.15496 842.866 9.59954C843.349 10.0441 843.601 10.6627 843.62 11.4552C843.581 11.8224 843.552 12.0254 843.533 12.064C843.533 12.122 843.378 12.5666 843.069 13.3978C842.76 14.2289 842.441 15.1664 842.112 16.2102C841.784 17.254 841.629 18.0852 841.648 18.7037C841.648 19.5349 841.784 20.1148 842.054 20.4434C842.325 20.772 842.731 20.9459 843.272 20.9652C843.717 20.9652 844.132 20.8589 844.519 20.6463C844.905 20.4337 845.205 20.2114 845.418 19.9794C845.63 19.7475 845.891 19.4286 846.2 19.0226C846.2 19.0033 846.249 18.81 846.345 18.4428C846.442 18.0755 846.577 17.5053 846.751 16.7321C846.925 15.9589 847.109 15.2437 847.302 14.5865C848.037 11.6871 848.443 10.1698 848.52 10.0344C848.771 9.51255 849.187 9.25161 849.767 9.25161C850.018 9.25161 850.221 9.31926 850.376 9.45457C850.53 9.58987 850.637 9.70585 850.695 9.8025C850.753 9.89914 850.772 9.98613 850.753 10.0634C850.753 10.3147 850.279 12.3443 849.332 16.1522C848.385 19.9601 847.843 22.0477 847.708 22.415C847.167 24.0193 846.229 25.295 844.896 26.2422C843.562 27.1893 842.228 27.6726 840.895 27.6919C840.025 27.6919 839.261 27.4793 838.604 27.054C837.947 26.6288 837.618 25.9909 837.618 25.1404C837.618 24.7152 837.686 24.3576 837.821 24.0676C837.956 23.7777 838.14 23.5651 838.372 23.4298C838.604 23.2944 838.797 23.1978 838.952 23.1398C839.107 23.0818 839.271 23.0528 839.445 23.0528C840.295 23.0528 840.721 23.4587 840.721 24.2706C840.721 24.6572 840.605 24.9954 840.373 25.2854C840.141 25.5753 839.918 25.7686 839.706 25.8653C839.493 25.9619 839.368 26.0102 839.329 26.0102L839.242 26.0392C839.281 26.1359 839.464 26.2519 839.793 26.3872C840.121 26.5225 840.45 26.5901 840.779 26.5901H841.011C841.339 26.5901 841.59 26.5708 841.764 26.5321C842.402 26.3582 842.992 25.9909 843.533 25.4303C844.074 24.8698 844.49 24.2706 844.78 23.6327C845.07 22.9948 845.292 22.4536 845.447 22.009C845.601 21.5645 845.679 21.2745 845.679 21.1392L845.505 21.2552C845.389 21.3325 845.205 21.4388 844.954 21.5741C844.702 21.7094 844.451 21.8254 844.2 21.9221C843.813 22.0187 843.436 22.067 843.069 22.067C842.18 22.067 841.397 21.8544 840.721 21.4292C840.044 21.0039 839.599 20.3177 839.387 19.3706C839.368 19.2353 839.358 18.9357 839.358 18.4718C839.358 17.37 839.696 15.9299 840.373 14.1516C841.049 12.3733 841.387 11.2425 841.387 10.7593C841.387 10.74 841.387 10.7206 841.387 10.7013C841.387 10.5273 841.387 10.4114 841.387 10.3534C841.387 10.2954 841.349 10.2277 841.271 10.1504C841.194 10.0731 841.088 10.0344 840.953 10.0344H840.837C840.392 10.0344 839.986 10.2181 839.619 10.5853C839.252 10.9526 838.962 11.3489 838.749 11.7741C838.536 12.1993 838.372 12.6053 838.256 12.9919C838.14 13.3784 838.063 13.5911 838.024 13.6297C837.985 13.6684 837.831 13.6877 837.56 13.6877H837.154C837.038 13.5717 836.98 13.4848 836.98 13.4268Z" fill="black"/>
<path d="M862.664 28.9677H862.606C862.374 28.9677 862.2 28.8323 862.084 28.5617V14.4706L862.113 0.379408C862.306 0.128125 862.49 0.00248389 862.664 0.00248389C862.915 0.00248389 863.108 0.147455 863.243 0.437396V28.5617C863.089 28.8323 862.915 28.9677 862.721 28.9677H862.664Z" fill="black"/>
<path d="M876.256 13.3688C876.391 12.5569 876.913 11.6195 877.822 10.5563C878.73 9.49321 879.851 8.95199 881.185 8.93266C881.862 8.93266 882.48 9.10662 883.041 9.45455C883.601 9.80248 884.017 10.2374 884.287 10.7593C885.099 9.54154 886.075 8.93266 887.216 8.93266C887.931 8.93266 888.549 9.14528 889.071 9.57053C889.593 9.99578 889.864 10.566 889.883 11.2812C889.883 11.8417 889.748 12.296 889.477 12.6439C889.207 12.9918 888.946 13.2045 888.694 13.2818C888.443 13.3591 888.221 13.3978 888.028 13.3978C887.66 13.3978 887.361 13.2914 887.129 13.0788C886.897 12.8662 886.781 12.5859 886.781 12.238C886.781 11.3488 887.264 10.74 888.231 10.4114C888.018 10.1601 887.631 10.0344 887.071 10.0344C886.82 10.0344 886.636 10.0538 886.52 10.0924C885.785 10.4017 885.244 11.0396 884.896 12.006C883.736 16.2778 883.157 18.7713 883.157 19.4865C883.157 20.0278 883.311 20.4143 883.62 20.6463C883.93 20.8783 884.268 20.9942 884.635 20.9942C885.35 20.9942 886.056 20.6753 886.752 20.0374C887.448 19.3996 887.921 18.6167 888.173 17.6889C888.231 17.4956 888.289 17.3893 888.347 17.37C888.405 17.3506 888.559 17.3313 888.81 17.312H888.926C889.216 17.312 889.361 17.3893 889.361 17.5439C889.361 17.5633 889.342 17.6696 889.303 17.8629C888.994 18.9646 888.395 19.9408 887.506 20.7913C886.617 21.6418 885.582 22.067 884.403 22.067C883.05 22.067 882.026 21.4581 881.33 20.2404C880.537 21.4388 879.629 22.038 878.604 22.038H878.431C877.483 22.038 876.807 21.7867 876.401 21.2842C875.995 20.7816 875.782 20.25 875.763 19.6895C875.763 19.071 875.947 18.5684 876.314 18.1818C876.681 17.7952 877.116 17.6019 877.619 17.6019C878.45 17.6019 878.865 18.0078 878.865 18.8197C878.865 19.2063 878.749 19.5445 878.518 19.8345C878.286 20.1244 878.063 20.3177 877.851 20.4143C877.638 20.511 877.512 20.5593 877.474 20.5593L877.387 20.5883C877.387 20.6076 877.445 20.6463 877.561 20.7043C877.677 20.7623 877.831 20.8299 878.025 20.9072C878.218 20.9846 878.402 21.0136 878.575 20.9942C879.271 20.9942 879.871 20.5593 880.373 19.6895C880.547 19.3802 880.769 18.723 881.04 17.7179C881.311 16.7128 881.581 15.669 881.852 14.5865C882.122 13.5041 882.277 12.8662 882.316 12.6729C882.412 12.151 882.461 11.7741 882.461 11.5421C882.461 11.0009 882.316 10.6143 882.026 10.3824C881.736 10.1504 881.407 10.0344 881.04 10.0344C880.267 10.0344 879.542 10.3437 878.865 10.9623C878.189 11.5808 877.715 12.3733 877.445 13.3398C877.406 13.5137 877.358 13.6104 877.3 13.6297C877.242 13.649 877.087 13.6684 876.836 13.6877H876.43C876.314 13.5717 876.256 13.4654 876.256 13.3688Z" fill="black"/>
<path d="M893.072 0.0315348L893.188 0.0025406C893.285 0.0025406 893.382 0.0025406 893.478 0.0025406H893.826L894.638 0.698401C896.455 2.3414 897.779 4.39032 898.61 6.84516C899.442 9.3 899.857 11.8515 899.857 14.4996C899.857 15.814 899.76 17.0801 899.567 18.2979C899.374 19.5156 899.152 20.5497 898.9 21.4002C898.649 22.2507 898.291 23.1012 897.828 23.9517C897.364 24.8022 896.996 25.4498 896.726 25.8943C896.455 26.3389 896.059 26.8318 895.537 27.373C895.015 27.9143 894.706 28.2332 894.609 28.3298C894.513 28.4265 894.29 28.6101 893.942 28.8807C893.884 28.9387 893.846 28.9774 893.826 28.9967H893.478C893.324 28.9967 893.217 28.9967 893.159 28.9967C893.101 28.9967 893.053 28.9677 893.014 28.9097C892.976 28.8517 892.947 28.7648 892.927 28.6488C892.947 28.6294 893.053 28.5038 893.246 28.2719C896.242 25.1598 897.741 20.5691 897.741 14.4996C897.741 8.43018 896.242 3.83943 893.246 0.727395C893.053 0.495441 892.947 0.3698 892.927 0.350471C892.927 0.195835 892.976 0.0895231 893.072 0.0315348Z" fill="black"/>
<path d="M904.351 0.0315348L904.467 0.0025406C904.564 0.0025406 904.661 0.0025406 904.757 0.0025406H905.105L905.917 0.698401C907.734 2.3414 909.058 4.39032 909.889 6.84516C910.72 9.3 911.136 11.8515 911.136 14.4996C911.136 15.814 911.039 17.0801 910.846 18.2979C910.653 19.5156 910.431 20.5497 910.179 21.4002C909.928 22.2507 909.57 23.1012 909.106 23.9517C908.643 24.8022 908.275 25.4498 908.005 25.8943C907.734 26.3389 907.338 26.8318 906.816 27.373C906.294 27.9143 905.985 28.2332 905.888 28.3298C905.791 28.4265 905.569 28.6101 905.221 28.8807C905.163 28.9387 905.125 28.9774 905.105 28.9967H904.757C904.603 28.9967 904.496 28.9967 904.438 28.9967C904.38 28.9967 904.332 28.9677 904.293 28.9097C904.255 28.8517 904.226 28.7648 904.206 28.6488C904.226 28.6294 904.332 28.5038 904.525 28.2719C907.521 25.1598 909.019 20.5691 909.019 14.4996C909.019 8.43018 907.521 3.83943 904.525 0.727395C904.332 0.495441 904.226 0.3698 904.206 0.350471C904.206 0.195835 904.255 0.0895231 904.351 0.0315348Z" fill="black"/>
</svg>
