<svg width="297" height="96" viewBox="0 0 297 96" fill="none" xmlns="http://www.w3.org/2000/svg">
<g clip-path="url(#clip0_41_462)">
<path d="M0.722579 45.0529C0.743524 44.9901 0.764468 44.9063 0.785413 44.8016C0.806357 44.6969 0.858718 44.4665 0.942496 44.1104C1.02627 43.7544 1.131 43.4297 1.25666 43.1365C1.38233 42.8433 1.53941 42.4977 1.72791 42.0998C1.91641 41.7018 2.12585 41.3877 2.35624 41.1573C2.58663 40.9269 2.85891 40.6965 3.17307 40.4661C3.48724 40.2357 3.83282 40.1415 4.20982 40.1833C5.78065 40.1833 6.78598 40.8536 7.22582 42.194L7.53998 41.9113C8.83854 40.7593 10.0743 40.1833 11.2471 40.1833C12.6085 40.1833 13.6767 40.6755 14.4516 41.6599C15.2266 42.6443 15.6141 43.8381 15.6141 45.2414C15.6141 47.5034 14.8182 49.5874 13.2264 51.4933C11.6346 53.3993 9.8334 54.3627 7.82273 54.3837C7.36196 54.3837 6.95354 54.3208 6.59748 54.1952C6.3671 54.0904 6.12624 53.9333 5.8749 53.7239C5.62357 53.5145 5.4246 53.3364 5.27799 53.1898L5.05807 52.9385C5.03713 52.9594 4.80674 53.8705 4.36691 55.6717C3.92707 57.473 3.70716 58.384 3.70716 58.405C3.70716 58.5306 3.79093 58.6039 3.95849 58.6249C4.12605 58.6458 4.51352 58.6773 5.1209 58.7191H5.90632C6.03199 58.8658 6.09482 58.96 6.09482 59.0019C6.09482 59.0438 6.0634 59.2323 6.00057 59.5674C5.93774 59.8187 5.8749 59.9758 5.81207 60.0386C5.74924 60.1015 5.6131 60.1434 5.40365 60.1643C5.36176 60.1643 5.24657 60.1643 5.05807 60.1643C4.86957 60.1643 4.51352 60.1538 3.98991 60.1329C3.4663 60.1119 2.81702 60.1015 2.04208 60.1015C0.575968 60.1015 -0.356057 60.1224 -0.754001 60.1643H-1.00533C-1.15194 60.0177 -1.22525 59.9025 -1.22525 59.8187C-1.18336 59.2532 -1.04722 58.8867 -0.816834 58.7191H-0.188502C0.523607 58.6982 0.932023 58.5725 1.03675 58.3421C1.09958 58.2165 1.73838 55.7136 2.95316 50.8336C4.16793 45.9535 4.80674 43.3669 4.86957 43.0737C4.89052 42.969 4.90099 42.8223 4.90099 42.6338C4.90099 41.7751 4.63918 41.3458 4.11557 41.3458C3.6548 41.3458 3.26732 41.639 2.95316 42.2254C2.63899 42.8119 2.39813 43.4507 2.23058 44.1418C2.06302 44.833 1.93735 45.21 1.85358 45.2728C1.81169 45.3147 1.64413 45.3357 1.35091 45.3357H0.911079C0.785413 45.21 0.722579 45.1158 0.722579 45.0529ZM5.59215 50.865C6.05293 52.4568 6.82787 53.2527 7.91698 53.2527C8.54531 53.2527 9.1527 53.0118 9.73915 52.5301C10.3256 52.0484 10.8073 51.441 11.1843 50.7079C11.5613 49.9958 11.9383 48.8648 12.3153 47.3149C12.6923 45.765 12.8913 44.6131 12.9122 43.8591V43.6706C12.9122 42.1207 12.2734 41.3458 10.9958 41.3458C10.7654 41.3458 10.535 41.3772 10.3046 41.44C10.0743 41.5028 9.84387 41.5971 9.61348 41.7228C9.38309 41.8484 9.17365 41.9846 8.98515 42.1312C8.79665 42.2778 8.61862 42.4349 8.45106 42.6024C8.28351 42.77 8.12643 42.9271 7.97982 43.0737C7.8332 43.2203 7.71801 43.3669 7.63423 43.5135C7.55046 43.6601 7.46668 43.7648 7.3829 43.8277L7.28865 43.9533C7.28865 43.9743 7.25723 44.1209 7.1944 44.3932C7.13157 44.6654 7.01637 45.1262 6.84882 45.7755C6.68126 46.4248 6.53465 46.9693 6.40899 47.4092C5.86443 49.6293 5.59215 50.7812 5.59215 50.865Z" fill="black"/>
<path d="M18.7557 46.2153C18.7557 44.7701 18.8604 43.3983 19.0699 42.0997C19.2793 40.8012 19.5202 39.6806 19.7925 38.7381C20.0647 37.7956 20.4522 36.8741 20.9549 35.9735C21.4575 35.0729 21.8555 34.3712 22.1487 33.8686C22.4419 33.3659 22.8818 32.8213 23.4682 32.2349C24.0546 31.6485 24.4002 31.2924 24.5049 31.1667C24.6097 31.0411 24.8715 30.8211 25.2904 30.507H25.6988H25.8244C26.1177 30.507 26.2643 30.6012 26.2643 30.7897C26.2643 30.8526 26.0862 31.0725 25.7302 31.4495C25.3741 31.8265 24.9448 32.3815 24.4421 33.1146C23.9394 33.8476 23.4263 34.7482 22.9027 35.8164C22.3791 36.8846 21.9393 38.3297 21.5832 40.1519C21.2271 41.974 21.0491 43.9952 21.0491 46.2153C21.0491 48.4354 21.2271 50.4461 21.5832 52.2473C21.9393 54.0485 22.3686 55.5041 22.8713 56.6142C23.3739 57.7242 23.8871 58.6248 24.4107 59.316C24.9343 60.0072 25.3741 60.5622 25.7302 60.9811C26.0862 61.4 26.2643 61.6199 26.2643 61.6408C26.2643 61.8293 26.1072 61.9236 25.793 61.9236H25.6988H25.2904L24.4107 61.1696C22.4419 59.3893 21.0072 57.1692 20.1066 54.5093C19.206 51.8493 18.7557 49.0847 18.7557 46.2153Z" fill="black"/>
<path d="M33.8043 35.2195C33.8043 34.7168 34.0032 34.277 34.4012 33.9C34.7991 33.523 35.2599 33.324 35.7835 33.3031C36.1605 33.3031 36.4747 33.4287 36.726 33.6801C36.9773 33.9314 37.1135 34.2456 37.1344 34.6226C37.1344 35.1043 36.925 35.5441 36.5061 35.9421C36.0872 36.34 35.6264 36.5495 35.1238 36.5704C34.8096 36.5704 34.5164 36.4657 34.2441 36.2562C33.9718 36.0468 33.8252 35.7012 33.8043 35.2195ZM28.6833 45.0529C28.6833 44.8853 28.7776 44.5607 28.9661 44.079C29.1546 43.5973 29.4059 43.0632 29.7201 42.4767C30.0343 41.8903 30.495 41.3562 31.1024 40.8745C31.7098 40.3928 32.3381 40.1624 32.9874 40.1833C33.8043 40.1833 34.4849 40.4242 35.0295 40.9059C35.5741 41.3876 35.8568 42.0369 35.8778 42.8537C35.8778 43.2098 35.7311 43.7962 35.4379 44.6131C35.1447 45.4299 34.7258 46.5295 34.1813 47.9118C33.6367 49.2941 33.1969 50.4775 32.8618 51.4619C32.757 51.9227 32.7047 52.2578 32.7047 52.4672C32.7047 52.9908 32.8827 53.2526 33.2388 53.2526C33.4273 53.2526 33.6262 53.2212 33.8357 53.1584C34.0451 53.0955 34.286 52.9489 34.5583 52.7185C34.8305 52.4882 35.1133 52.1216 35.4065 51.619C35.6997 51.1163 35.9615 50.4984 36.1919 49.7654C36.2548 49.514 36.3071 49.3674 36.349 49.3255C36.3909 49.2837 36.5689 49.2627 36.8831 49.2627C37.302 49.2627 37.5114 49.3674 37.5114 49.5769C37.5114 49.7444 37.4172 50.0691 37.2287 50.5508C37.0402 51.0325 36.7784 51.5666 36.4433 52.153C36.1081 52.7395 35.6369 53.2631 35.0295 53.7239C34.4221 54.1847 33.7728 54.415 33.0817 54.415C32.4115 54.415 31.7936 54.1951 31.2281 53.7553C30.6626 53.3155 30.3694 52.6452 30.3484 51.7446C30.3484 51.3886 30.4008 51.0535 30.5055 50.7393C30.6102 50.4251 31.0605 49.2313 31.8564 47.1578C32.6523 45.0424 33.1131 43.7753 33.2388 43.3564C33.3644 42.9375 33.4377 42.5291 33.4587 42.1311C33.4587 41.6285 33.2806 41.3771 32.9246 41.3771H32.8618C32.2334 41.3771 31.6575 41.7227 31.1338 42.4139C30.6102 43.1051 30.2123 43.9847 29.94 45.0529C29.9191 45.0738 29.8981 45.1053 29.8772 45.1471C29.8562 45.189 29.8458 45.2204 29.8458 45.2414C29.8458 45.2623 29.8248 45.2833 29.7829 45.3042C29.741 45.3252 29.7096 45.3356 29.6887 45.3356C29.6677 45.3356 29.6258 45.3356 29.563 45.3356C29.5002 45.3356 29.4164 45.3356 29.3117 45.3356H28.8718C28.7462 45.21 28.6833 45.1157 28.6833 45.0529Z" fill="black"/>
<path d="M43.2292 61.8922H43.1664C42.9151 61.8922 42.7266 61.7456 42.6009 61.4524V46.1839L42.6323 30.9154C42.8418 30.6432 43.0407 30.507 43.2292 30.507C43.5015 30.507 43.7109 30.6641 43.8576 30.9783V61.4524C43.69 61.7456 43.5015 61.8922 43.2921 61.8922H43.2292Z" fill="black"/>
<path d="M49.2298 44.9901C49.3764 44.1104 49.9419 43.0946 50.9263 41.9426C51.9107 40.7907 53.1255 40.2043 54.5706 40.1833C55.3037 40.1833 55.9739 40.3718 56.5813 40.7488C57.1887 41.1258 57.639 41.5971 57.9322 42.1626C58.8119 40.8431 59.8696 40.1833 61.1053 40.1833C61.8802 40.1833 62.5505 40.4137 63.116 40.8745C63.6815 41.3353 63.9747 41.9531 63.9956 42.7281C63.9956 43.3354 63.849 43.8276 63.5558 44.2046C63.2626 44.5816 62.9798 44.812 62.7075 44.8958C62.4353 44.9796 62.1944 45.0215 61.985 45.0215C61.587 45.0215 61.2624 44.9063 61.011 44.6759C60.7597 44.4455 60.6341 44.1418 60.6341 43.7648C60.6341 42.8014 61.1577 42.1416 62.2049 41.7856C61.9745 41.5133 61.5556 41.3771 60.9482 41.3771C60.6759 41.3771 60.477 41.3981 60.3513 41.44C59.5554 41.7751 58.969 42.4663 58.592 43.5135C57.3353 48.1422 56.707 50.844 56.707 51.619C56.707 52.2054 56.8745 52.6243 57.2096 52.8756C57.5448 53.127 57.9113 53.2526 58.3092 53.2526C59.0842 53.2526 59.8486 52.907 60.6026 52.2159C61.3566 51.5247 61.8698 50.6765 62.142 49.6711C62.2049 49.4617 62.2677 49.3465 62.3305 49.3255C62.3934 49.3046 62.5609 49.2837 62.8332 49.2627H62.9589C63.273 49.2627 63.4301 49.3465 63.4301 49.514C63.4301 49.535 63.4092 49.6502 63.3673 49.8596C63.0322 51.0535 62.3829 52.1112 61.4195 53.0327C60.456 53.9543 59.3355 54.415 58.0579 54.415C56.5918 54.415 55.4817 53.7553 54.7277 52.4358C53.869 53.7343 52.8846 54.3836 51.7746 54.3836H51.5861C50.5598 54.3836 49.8267 54.1113 49.3869 53.5668C48.9471 53.0222 48.7167 52.4463 48.6957 51.8389C48.6957 51.1687 48.8947 50.6241 49.2927 50.2052C49.6906 49.7863 50.1618 49.5769 50.7064 49.5769C51.607 49.5769 52.0573 50.0167 52.0573 50.8964C52.0573 51.3153 51.9317 51.6818 51.6803 51.996C51.429 52.3101 51.1881 52.5196 50.9577 52.6243C50.7273 52.729 50.5912 52.7814 50.5493 52.7814L50.4551 52.8128C50.4551 52.8337 50.5179 52.8756 50.6436 52.9385C50.7692 53.0013 50.9368 53.0746 51.1462 53.1584C51.3557 53.2422 51.5547 53.2736 51.7432 53.2526C52.4971 53.2526 53.1464 52.7814 53.691 51.8389C53.8795 51.5038 54.1203 50.7917 54.4136 49.7025C54.7068 48.6134 55 47.4824 55.2932 46.3096C55.5864 45.1367 55.754 44.4455 55.7959 44.2361C55.9006 43.6706 55.953 43.2621 55.953 43.0108C55.953 42.4244 55.7959 42.0055 55.4817 41.7541C55.1676 41.5028 54.8115 41.3771 54.4136 41.3771C53.5758 41.3771 52.7904 41.7123 52.0573 42.3825C51.3243 43.0527 50.8111 43.9114 50.5179 44.9586C50.476 45.1471 50.4237 45.2519 50.3608 45.2728C50.298 45.2938 50.1304 45.3147 49.8582 45.3356H49.4183C49.2927 45.21 49.2298 45.0948 49.2298 44.9901Z" fill="black"/>
<path d="M67.4515 30.5384L67.5771 30.507C67.6818 30.507 67.7866 30.507 67.8913 30.507H68.2683L69.148 31.261C71.1167 33.0413 72.5514 35.2614 73.452 37.9213C74.3526 40.5812 74.8029 43.3459 74.8029 46.2153C74.8029 47.6395 74.6982 49.0114 74.4888 50.3309C74.2793 51.6504 74.0385 52.7709 73.7662 53.6924C73.4939 54.614 73.1064 55.5355 72.6038 56.4571C72.1011 57.3786 71.7032 58.0803 71.4099 58.562C71.1167 59.0437 70.6874 59.5778 70.1219 60.1643C69.5564 60.7507 69.2213 61.0963 69.1165 61.201C69.0118 61.3057 68.771 61.5047 68.394 61.7979C68.3311 61.8608 68.2892 61.9026 68.2683 61.9236H67.8913C67.7237 61.9236 67.6085 61.9236 67.5457 61.9236C67.4829 61.9236 67.4305 61.8922 67.3886 61.8293C67.3467 61.7665 67.3153 61.6723 67.2944 61.5466C67.3153 61.5256 67.4305 61.3895 67.64 61.1382C70.8863 57.7661 72.5095 52.7918 72.5095 46.2153C72.5095 39.6387 70.8863 34.6644 67.64 31.2924C67.4305 31.0411 67.3153 30.9049 67.2944 30.884C67.2944 30.7164 67.3467 30.6012 67.4515 30.5384Z" fill="black"/>
<path d="M88.2744 43.168C88.2744 42.8957 88.421 42.6862 88.7142 42.5396H108.727C109.041 42.7072 109.198 42.9166 109.198 43.168C109.198 43.3983 109.051 43.5973 108.758 43.7649L98.7676 43.7963H88.7771C88.442 43.6916 88.2744 43.4821 88.2744 43.168ZM88.2744 49.2628C88.2744 48.9486 88.442 48.7392 88.7771 48.6344H108.758C109.051 48.8439 109.198 49.0533 109.198 49.2628C109.198 49.5351 109.041 49.7445 108.727 49.8911H88.7142C88.421 49.7445 88.2744 49.5351 88.2744 49.2628Z" fill="black"/>
<path d="M126.596 28.5592C126.596 28.5382 126.575 28.4649 126.533 28.3392C126.492 28.2136 126.45 28.1089 126.408 28.0251C126.366 27.9413 126.303 27.8261 126.219 27.6795C126.136 27.5329 126.041 27.3967 125.937 27.2711C125.832 27.1454 125.685 27.0093 125.497 26.8627C125.308 26.716 125.109 26.5904 124.9 26.4857C124.69 26.3809 124.418 26.2867 124.083 26.2029C123.748 26.1191 123.402 26.0563 123.046 26.0144C122.69 25.9725 122.261 25.9411 121.758 25.9202H121.444V24.2237H158.044V25.9202H157.73C154.986 25.9202 153.384 26.7998 152.923 28.5592V63.84C153.3 65.6203 154.903 66.5104 157.73 66.5104H158.044V68.2069H142.462V66.5104H142.776C145.478 66.5104 147.08 65.6517 147.583 63.9343C147.604 63.8924 147.614 63.8609 147.614 63.84V25.9202H131.874V44.8958L131.906 63.84C132.241 65.6203 133.843 66.5104 136.712 66.5104H137.027V68.2069H121.444V66.5104H121.758C124.46 66.5104 126.062 65.6517 126.565 63.9343C126.586 63.8924 126.596 63.8609 126.596 63.84V28.5592Z" fill="black"/>
<path d="M120.488 81.8729C120.503 81.8285 120.517 81.7692 120.532 81.6952C120.547 81.6212 120.584 81.4583 120.643 81.2065C120.702 80.9548 120.776 80.7253 120.865 80.518C120.954 80.3107 121.065 80.0664 121.198 79.785C121.332 79.5037 121.48 79.2815 121.643 79.1187C121.806 78.9558 121.998 78.7929 122.22 78.63C122.442 78.4671 122.687 78.4005 122.953 78.4301C124.064 78.4301 124.775 78.9039 125.085 79.8516L125.308 79.6517C126.226 78.8373 127.099 78.4301 127.929 78.4301C128.891 78.4301 129.646 78.7781 130.194 79.474C130.742 80.17 131.016 81.014 131.016 82.0062C131.016 83.6054 130.453 85.0788 129.328 86.4263C128.203 87.7738 126.929 88.4549 125.508 88.4697C125.182 88.4697 124.893 88.4253 124.641 88.3364C124.478 88.2624 124.308 88.1514 124.13 88.0033C123.953 87.8552 123.812 87.7293 123.708 87.6257L123.553 87.448C123.538 87.4628 123.375 88.1069 123.064 89.3804C122.753 90.6539 122.598 91.298 122.598 91.3128C122.598 91.4016 122.657 91.4535 122.775 91.4683C122.894 91.4831 123.168 91.5053 123.597 91.5349H124.153C124.241 91.6386 124.286 91.7052 124.286 91.7348C124.286 91.7644 124.264 91.8977 124.219 92.1346C124.175 92.3123 124.13 92.4234 124.086 92.4678C124.042 92.5122 123.945 92.5418 123.797 92.5566C123.768 92.5566 123.686 92.5566 123.553 92.5566C123.42 92.5566 123.168 92.5492 122.798 92.5344C122.428 92.5196 121.968 92.5122 121.421 92.5122C120.384 92.5122 119.725 92.527 119.444 92.5566H119.266C119.162 92.453 119.111 92.3715 119.111 92.3123C119.14 91.9125 119.236 91.6534 119.399 91.5349H119.844C120.347 91.5201 120.636 91.4313 120.71 91.2684C120.754 91.1795 121.206 89.41 122.065 85.9598C122.924 82.5096 123.375 80.6809 123.42 80.4736C123.434 80.3995 123.442 80.2959 123.442 80.1626C123.442 79.5555 123.257 79.2519 122.887 79.2519C122.561 79.2519 122.287 79.4592 122.065 79.8739C121.843 80.2885 121.672 80.7401 121.554 81.2288C121.435 81.7174 121.347 81.9839 121.287 82.0284C121.258 82.058 121.139 82.0728 120.932 82.0728H120.621C120.532 81.9839 120.488 81.9173 120.488 81.8729ZM123.93 85.982C124.256 87.1074 124.804 87.6701 125.574 87.6701C126.018 87.6701 126.448 87.4998 126.862 87.1592C127.277 86.8187 127.618 86.3892 127.884 85.871C128.151 85.3675 128.417 84.5679 128.684 83.4721C128.95 82.3764 129.091 81.5619 129.106 81.0289V80.8956C129.106 79.7998 128.654 79.2519 127.751 79.2519C127.588 79.2519 127.425 79.2741 127.262 79.3186C127.099 79.363 126.936 79.4296 126.774 79.5185C126.611 79.6073 126.463 79.7036 126.329 79.8072C126.196 79.9109 126.07 80.0219 125.952 80.1404C125.833 80.2589 125.722 80.3699 125.619 80.4736C125.515 80.5772 125.433 80.6809 125.374 80.7845C125.315 80.8882 125.256 80.9622 125.197 81.0066L125.13 81.0955C125.13 81.1103 125.108 81.2139 125.063 81.4064C125.019 81.5989 124.937 81.9247 124.819 82.3838C124.7 82.8428 124.597 83.2278 124.508 83.5388C124.123 85.1084 123.93 85.9228 123.93 85.982Z" fill="black"/>
<path d="M132.393 80.5402C132.393 80.3477 132.497 80.1996 132.704 80.096H146.853C147.075 80.2144 147.186 80.3625 147.186 80.5402C147.186 80.7031 147.082 80.8437 146.875 80.9622L139.812 80.9844H132.748C132.512 80.9104 132.393 80.7623 132.393 80.5402ZM132.393 84.8492C132.393 84.6271 132.512 84.479 132.748 84.405H146.875C147.082 84.5531 147.186 84.7011 147.186 84.8492C147.186 85.0417 147.075 85.1898 146.853 85.2935H132.704C132.497 85.1898 132.393 85.0417 132.393 84.8492Z" fill="black"/>
<path d="M153.161 75.4093L152.872 75.5203C152.665 75.5944 152.369 75.6684 151.984 75.7425C151.599 75.8165 151.169 75.8683 150.695 75.8979H150.273V74.8762H150.695C151.391 74.8466 152.035 74.7355 152.628 74.543C153.22 74.3505 153.635 74.1728 153.872 74.01C154.109 73.8471 154.316 73.6842 154.494 73.5213C154.523 73.4769 154.612 73.4547 154.76 73.4547C154.893 73.4547 155.019 73.4991 155.138 73.5879V80.2292L155.16 86.8927C155.264 86.9963 155.352 87.0629 155.426 87.0926C155.5 87.1222 155.678 87.1518 155.96 87.1814C156.241 87.211 156.7 87.2258 157.337 87.2258H157.914V88.2476H157.67C157.359 88.2031 156.182 88.1809 154.138 88.1809C152.124 88.1809 150.962 88.2031 150.651 88.2476H150.384V87.2258H150.962C151.288 87.2258 151.569 87.2258 151.806 87.2258C152.043 87.2258 152.228 87.2184 152.361 87.2036C152.495 87.1888 152.613 87.1666 152.717 87.137C152.82 87.1074 152.88 87.0926 152.894 87.0926C152.909 87.0926 152.954 87.0555 153.028 86.9815C153.102 86.9075 153.146 86.8778 153.161 86.8927V75.4093Z" fill="black"/>
<path d="M125.82 4.61344C125.82 4.25806 125.961 3.94709 126.242 3.68056C126.523 3.41402 126.849 3.27334 127.219 3.25854C127.486 3.25854 127.708 3.34738 127.886 3.52508C128.063 3.70277 128.16 3.92488 128.174 4.19142C128.174 4.532 128.026 4.84296 127.73 5.12431C127.434 5.40565 127.108 5.55373 126.753 5.56854C126.531 5.56854 126.323 5.4945 126.131 5.34642C125.938 5.19835 125.835 4.95402 125.82 4.61344ZM122.199 11.5657C122.199 11.4472 122.266 11.2177 122.399 10.8771C122.533 10.5365 122.71 10.1589 122.932 9.74431C123.155 9.32969 123.48 8.9521 123.91 8.61152C124.339 8.27094 124.783 8.10806 125.242 8.12286C125.82 8.12286 126.301 8.29315 126.686 8.63373C127.071 8.97431 127.271 9.43335 127.286 10.0108C127.286 10.2626 127.182 10.6772 126.975 11.2547C126.768 11.8322 126.471 12.6096 126.086 13.5869C125.701 14.5642 125.391 15.4008 125.154 16.0968C125.08 16.4226 125.043 16.6595 125.043 16.8076C125.043 17.1778 125.168 17.3629 125.42 17.3629C125.553 17.3629 125.694 17.3407 125.842 17.2962C125.99 17.2518 126.161 17.1482 126.353 16.9853C126.546 16.8224 126.745 16.5632 126.953 16.2079C127.16 15.8525 127.345 15.4157 127.508 14.8974C127.552 14.7197 127.589 14.616 127.619 14.5864C127.649 14.5568 127.775 14.542 127.997 14.542C128.293 14.542 128.441 14.616 128.441 14.7641C128.441 14.8826 128.374 15.1121 128.241 15.4527C128.108 15.7932 127.923 16.1708 127.686 16.5855C127.449 17.0001 127.116 17.3703 126.686 17.696C126.257 18.0218 125.798 18.1847 125.309 18.1847C124.835 18.1847 124.398 18.0292 123.999 17.7183C123.599 17.4073 123.391 16.9334 123.377 16.2967C123.377 16.045 123.414 15.8081 123.488 15.5859C123.562 15.3638 123.88 14.5198 124.443 13.0538C125.006 11.5582 125.331 10.6624 125.42 10.3662C125.509 10.0701 125.561 9.78133 125.576 9.49998C125.576 9.1446 125.45 8.9669 125.198 8.9669H125.154C124.709 8.9669 124.302 9.21123 123.932 9.69988C123.562 10.1885 123.28 10.8105 123.088 11.5657C123.073 11.5805 123.058 11.6027 123.044 11.6323C123.029 11.6619 123.021 11.6841 123.021 11.6989C123.021 11.7137 123.006 11.7285 122.977 11.7433C122.947 11.7582 122.925 11.7656 122.91 11.7656C122.895 11.7656 122.866 11.7656 122.821 11.7656C122.777 11.7656 122.718 11.7656 122.644 11.7656H122.333C122.244 11.6767 122.199 11.6101 122.199 11.5657Z" fill="black"/>
<path d="M131.262 12.6762C131.262 12.6762 131.262 12.5799 131.262 12.3874C131.262 12.1949 131.365 12.0469 131.573 11.9432H144.478C144.7 12.0617 144.811 12.2097 144.811 12.3874C144.811 12.5651 144.7 12.7132 144.478 12.8317H131.573C131.365 12.728 131.262 12.5799 131.262 12.3874V12.6762Z" fill="black"/>
<path d="M151.408 5.10204L151.119 5.2131C150.912 5.28713 150.615 5.36117 150.23 5.43521C149.845 5.50925 149.416 5.56108 148.942 5.59069H148.52V4.56896H148.942C149.638 4.53935 150.282 4.42829 150.875 4.23579C151.467 4.04329 151.881 3.8656 152.118 3.70271C152.355 3.53983 152.563 3.37694 152.74 3.21406C152.77 3.16963 152.859 3.14742 153.007 3.14742C153.14 3.14742 153.266 3.19185 153.384 3.28069V9.92194L153.407 16.5854C153.51 16.6891 153.599 16.7557 153.673 16.7853C153.747 16.8149 153.925 16.8445 154.206 16.8742C154.488 16.9038 154.947 16.9186 155.583 16.9186H156.161V17.9403H155.917C155.606 17.8959 154.428 17.8737 152.385 17.8737C150.371 17.8737 149.209 17.8959 148.898 17.9403H148.631V16.9186H149.209C149.534 16.9186 149.816 16.9186 150.053 16.9186C150.29 16.9186 150.475 16.9112 150.608 16.8964C150.741 16.8816 150.86 16.8593 150.963 16.8297C151.067 16.8001 151.126 16.7853 151.141 16.7853C151.156 16.7853 151.2 16.7483 151.274 16.6742C151.348 16.6002 151.393 16.5706 151.408 16.5854V5.10204Z" fill="black"/>
<path d="M162.788 46.2153C162.788 44.7701 162.893 43.3983 163.102 42.0997C163.312 40.8012 163.553 39.6806 163.825 38.7381C164.097 37.7956 164.485 36.8741 164.987 35.9735C165.49 35.0729 165.888 34.3712 166.181 33.8686C166.474 33.3659 166.914 32.8213 167.501 32.2349C168.087 31.6485 168.433 31.2924 168.538 31.1667C168.642 31.0411 168.904 30.8211 169.323 30.507H169.731H169.857C170.15 30.507 170.297 30.6012 170.297 30.7897C170.297 30.8526 170.119 31.0725 169.763 31.4495C169.407 31.8265 168.977 32.3815 168.475 33.1146C167.972 33.8476 167.459 34.7482 166.935 35.8164C166.412 36.8846 165.972 38.3297 165.616 40.1519C165.26 41.974 165.082 43.9952 165.082 46.2153C165.082 48.4354 165.26 50.4461 165.616 52.2473C165.972 54.0485 166.401 55.5041 166.904 56.6142C167.407 57.7242 167.92 58.6248 168.443 59.316C168.967 60.0072 169.407 60.5622 169.763 60.9811C170.119 61.4 170.297 61.6199 170.297 61.6408C170.297 61.8293 170.14 61.9236 169.826 61.9236H169.731H169.323L168.443 61.1696C166.474 59.3893 165.04 57.1692 164.139 54.5093C163.239 51.8493 162.788 49.0847 162.788 46.2153Z" fill="black"/>
<path d="M178.748 35.9107L178.339 36.0677C178.046 36.1725 177.627 36.2772 177.083 36.3819C176.538 36.4866 175.931 36.5599 175.261 36.6018H174.664V35.1567H175.261C176.245 35.1148 177.156 34.9577 177.994 34.6854C178.832 34.4131 179.418 34.1618 179.753 33.9314C180.088 33.701 180.382 33.4706 180.633 33.2403C180.675 33.1774 180.8 33.146 181.01 33.146C181.198 33.146 181.376 33.2088 181.544 33.3345V42.7281L181.575 52.153C181.722 52.2997 181.848 52.3939 181.952 52.4358C182.057 52.4777 182.308 52.5196 182.706 52.5615C183.104 52.6033 183.754 52.6243 184.654 52.6243H185.471V54.0695H185.125C184.686 54.0066 183.021 53.9752 180.13 53.9752C177.282 53.9752 175.638 54.0066 175.198 54.0695H174.821V52.6243H175.638C176.098 52.6243 176.496 52.6243 176.832 52.6243C177.167 52.6243 177.428 52.6138 177.617 52.5929C177.805 52.5719 177.973 52.5405 178.12 52.4986C178.266 52.4567 178.35 52.4358 178.371 52.4358C178.392 52.4358 178.455 52.3834 178.559 52.2787C178.664 52.174 178.727 52.1321 178.748 52.153V35.9107Z" fill="black"/>
<path d="M197.384 46.6237C197.384 46.6237 197.384 46.4876 197.384 46.2153C197.384 45.943 197.531 45.7336 197.824 45.587H216.077C216.391 45.7545 216.548 45.964 216.548 46.2153C216.548 46.4666 216.391 46.6761 216.077 46.8436H197.824C197.531 46.697 197.384 46.4876 197.384 46.2153V46.6237Z" fill="black"/>
<path d="M231.383 32.9262C231.383 32.6748 231.561 32.4549 231.917 32.2664H232.514C234.399 32.3292 235.593 32.8529 236.096 33.8372C236.221 34.1514 236.818 35.806 237.887 38.8011C238.955 41.7961 240.012 44.7179 241.06 47.5663C242.107 50.4147 242.63 51.8808 242.63 51.9646C242.777 52.3835 242.913 52.7291 243.039 53.0014C243.165 53.2736 243.259 53.4726 243.322 53.5983C243.384 53.724 243.437 53.8182 243.479 53.881C243.521 53.9439 243.562 53.9858 243.604 54.0067C243.646 54.0276 243.657 54.0695 243.636 54.1324C243.615 54.1952 243.552 54.2895 243.447 54.4151H241.311C240.787 54.1219 240.452 53.8182 240.306 53.504C240.159 53.1899 239.625 51.7866 238.703 49.2942L237.29 45.3671L236.85 45.8384C236.578 46.1735 236.085 46.7495 235.373 47.5663C234.661 48.3831 234.064 49.0743 233.582 49.6398C233.059 50.2472 232.41 51.0012 231.635 51.9018C230.566 53.1585 229.907 53.8915 229.655 54.101C229.404 54.3104 229.111 54.4256 228.776 54.4465C228.022 54.4465 227.645 54.1114 227.645 53.4412C227.645 53.0851 227.791 52.75 228.085 52.4359C228.378 52.1217 229.823 50.708 232.42 48.1946C233.048 47.5872 233.75 46.9065 234.525 46.1525C235.3 45.3986 235.876 44.8331 236.253 44.4561L236.787 43.9534C236.787 43.9324 236.263 42.4663 235.216 39.5551C234.169 36.6438 233.603 35.073 233.52 34.8426C233.101 33.9001 232.567 33.4288 231.917 33.4288C231.561 33.4288 231.383 33.2613 231.383 32.9262Z" fill="black"/>
<path d="M244.995 52.4073C245.01 52.3629 245.024 52.3037 245.039 52.2296C245.054 52.1556 245.091 51.9927 245.15 51.741C245.21 51.4892 245.284 51.2597 245.372 51.0524C245.461 50.8451 245.572 50.6008 245.706 50.3194C245.839 50.0381 245.987 49.816 246.15 49.6531C246.313 49.4902 246.505 49.3273 246.727 49.1644C246.949 49.0015 247.194 48.9349 247.46 48.9645C248.571 48.9645 249.282 49.4384 249.593 50.3861L249.815 50.1862C250.733 49.3717 251.606 48.9645 252.436 48.9645C253.398 48.9645 254.153 49.3125 254.701 50.0085C255.249 50.7044 255.523 51.5485 255.523 52.5406C255.523 54.1398 254.96 55.6132 253.835 56.9607C252.71 58.3082 251.436 58.9893 250.015 59.0041C249.689 59.0041 249.4 58.9597 249.148 58.8709C248.986 58.7968 248.815 58.6858 248.638 58.5377C248.46 58.3896 248.319 58.2638 248.216 58.1601L248.06 57.9824C248.045 57.9972 247.882 58.6414 247.571 59.9148C247.26 61.1883 247.105 61.8324 247.105 61.8472C247.105 61.9361 247.164 61.9879 247.283 62.0027C247.401 62.0175 247.675 62.0397 248.104 62.0693H248.66C248.749 62.173 248.793 62.2396 248.793 62.2692C248.793 62.2989 248.771 62.4321 248.726 62.669C248.682 62.8467 248.638 62.9578 248.593 63.0022C248.549 63.0466 248.452 63.0763 248.304 63.0911C248.275 63.0911 248.193 63.0911 248.06 63.0911C247.927 63.0911 247.675 63.0837 247.305 63.0689C246.935 63.054 246.476 63.0466 245.928 63.0466C244.891 63.0466 244.232 63.0614 243.951 63.0911H243.773C243.67 62.9874 243.618 62.906 243.618 62.8467C243.647 62.4469 243.744 62.1878 243.906 62.0693H244.351C244.854 62.0545 245.143 61.9657 245.217 61.8028C245.261 61.7139 245.713 59.9444 246.572 56.4942C247.431 53.044 247.882 51.2153 247.927 51.008C247.942 50.9339 247.949 50.8303 247.949 50.697C247.949 50.0899 247.764 49.7864 247.394 49.7864C247.068 49.7864 246.794 49.9937 246.572 50.4083C246.35 50.8229 246.179 51.2745 246.061 51.7632C245.943 52.2518 245.854 52.5184 245.794 52.5628C245.765 52.5924 245.646 52.6072 245.439 52.6072H245.128C245.039 52.5184 244.995 52.4517 244.995 52.4073ZM248.438 56.5164C248.763 57.6418 249.311 58.2045 250.081 58.2045C250.526 58.2045 250.955 58.0342 251.37 57.6937C251.784 57.3531 252.125 56.9237 252.391 56.4054C252.658 55.9019 252.924 55.1023 253.191 54.0065C253.457 52.9108 253.598 52.0964 253.613 51.5633V51.43C253.613 50.3342 253.161 49.7864 252.258 49.7864C252.095 49.7864 251.932 49.8086 251.769 49.853C251.606 49.8974 251.444 49.964 251.281 50.0529C251.118 50.1417 250.97 50.238 250.836 50.3416C250.703 50.4453 250.577 50.5564 250.459 50.6748C250.34 50.7933 250.229 50.9043 250.126 51.008C250.022 51.1116 249.941 51.2153 249.881 51.3189C249.822 51.4226 249.763 51.4966 249.704 51.5411L249.637 51.6299C249.637 51.6447 249.615 51.7484 249.57 51.9409C249.526 52.1334 249.445 52.4591 249.326 52.9182C249.208 53.3772 249.104 53.7622 249.015 54.0732C248.63 55.6428 248.438 56.4572 248.438 56.5164Z" fill="black"/>
<path d="M259.115 30.5384L259.24 30.507C259.345 30.507 259.45 30.507 259.555 30.507H259.932L260.811 31.261C262.78 33.0413 264.215 35.2614 265.115 37.9213C266.016 40.5812 266.466 43.3459 266.466 46.2153C266.466 47.6395 266.361 49.0114 266.152 50.3309C265.943 51.6504 265.702 52.7709 265.429 53.6924C265.157 54.614 264.77 55.5355 264.267 56.4571C263.764 57.3786 263.366 58.0803 263.073 58.562C262.78 59.0437 262.351 59.5778 261.785 60.1643C261.22 60.7507 260.885 61.0963 260.78 61.201C260.675 61.3057 260.434 61.5047 260.057 61.7979C259.994 61.8608 259.953 61.9026 259.932 61.9236H259.555C259.387 61.9236 259.272 61.9236 259.209 61.9236C259.146 61.9236 259.094 61.8922 259.052 61.8293C259.01 61.7665 258.979 61.6723 258.958 61.5466C258.979 61.5256 259.094 61.3895 259.303 61.1382C262.55 57.7661 264.173 52.7918 264.173 46.2153C264.173 39.6387 262.55 34.6644 259.303 31.2924C259.094 31.0411 258.979 30.9049 258.958 30.884C258.958 30.7164 259.01 30.6012 259.115 30.5384Z" fill="black"/>
<path d="M274.666 32.926C274.666 32.6747 274.844 32.4548 275.2 32.2663H275.797C277.682 32.3291 278.876 32.8527 279.378 33.8371C279.504 34.1513 280.101 35.8059 281.169 38.8009C282.237 41.796 283.295 44.7177 284.342 47.5662C285.389 50.4146 285.913 51.8807 285.913 51.9645C286.06 52.3834 286.196 52.729 286.322 53.0012C286.447 53.2735 286.541 53.4725 286.604 53.5982C286.667 53.7238 286.719 53.8181 286.761 53.8809C286.803 53.9437 286.845 53.9856 286.887 54.0066C286.929 54.0275 286.939 54.0694 286.918 54.1322C286.897 54.1951 286.835 54.2893 286.73 54.415H284.594C284.07 54.1218 283.735 53.8181 283.588 53.5039C283.442 53.1897 282.908 51.7865 281.986 49.2941L280.572 45.367L280.132 45.8383C279.86 46.1734 279.368 46.7493 278.656 47.5662C277.944 48.383 277.347 49.0742 276.865 49.6397C276.341 50.2471 275.692 51.0011 274.917 51.9017C273.849 53.1583 273.189 53.8914 272.938 54.1008C272.687 54.3103 272.393 54.4255 272.058 54.4464C271.304 54.4464 270.927 54.1113 270.927 53.4411C270.927 53.085 271.074 52.7499 271.367 52.4357C271.66 52.1216 273.106 50.7078 275.703 48.1945C276.331 47.5871 277.033 46.9064 277.808 46.1524C278.583 45.3984 279.159 44.8329 279.536 44.4559L280.07 43.9533C280.07 43.9323 279.546 42.4662 278.499 39.5549C277.452 36.6437 276.886 35.0728 276.802 34.8424C276.383 33.9 275.849 33.4287 275.2 33.4287C274.844 33.4287 274.666 33.2611 274.666 32.926Z" fill="black"/>
<path d="M291.854 45.455C291.854 45.0996 291.994 44.7886 292.276 44.5221C292.557 44.2556 292.883 44.1149 293.253 44.1001C293.519 44.1001 293.742 44.1889 293.919 44.3666C294.097 44.5443 294.193 44.7664 294.208 45.033C294.208 45.3736 294.06 45.6845 293.764 45.9659C293.468 46.2472 293.142 46.3953 292.786 46.4101C292.564 46.4101 292.357 46.3361 292.165 46.188C291.972 46.0399 291.868 45.7956 291.854 45.455ZM288.233 52.4072C288.233 52.2887 288.3 52.0592 288.433 51.7186C288.566 51.3781 288.744 51.0005 288.966 50.5859C289.188 50.1712 289.514 49.7936 289.943 49.4531C290.373 49.1125 290.817 48.9496 291.276 48.9644C291.854 48.9644 292.335 49.1347 292.72 49.4753C293.105 49.8159 293.305 50.2749 293.32 50.8524C293.32 51.1041 293.216 51.5187 293.009 52.0962C292.801 52.6737 292.505 53.4511 292.12 54.4285C291.735 55.4058 291.424 56.2424 291.187 56.9384C291.113 57.2641 291.076 57.5011 291.076 57.6491C291.076 58.0193 291.202 58.2044 291.454 58.2044C291.587 58.2044 291.728 58.1822 291.876 58.1378C292.024 58.0934 292.194 57.9897 292.387 57.8268C292.579 57.6639 292.779 57.4048 292.986 57.0494C293.194 56.694 293.379 56.2572 293.542 55.7389C293.586 55.5612 293.623 55.4576 293.653 55.428C293.682 55.3984 293.808 55.3836 294.03 55.3836C294.326 55.3836 294.475 55.4576 294.475 55.6057C294.475 55.7241 294.408 55.9536 294.275 56.2942C294.141 56.6348 293.956 57.0124 293.719 57.427C293.482 57.8416 293.149 58.2118 292.72 58.5376C292.29 58.8634 291.831 59.0262 291.343 59.0262C290.869 59.0262 290.432 58.8708 290.032 58.5598C289.632 58.2488 289.425 57.775 289.41 57.1383C289.41 56.8865 289.447 56.6496 289.521 56.4275C289.595 56.2054 289.914 55.3613 290.476 53.8954C291.039 52.3998 291.365 51.5039 291.454 51.2078C291.543 50.9116 291.594 50.6229 291.609 50.3415C291.609 49.9861 291.483 49.8085 291.232 49.8085H291.187C290.743 49.8085 290.336 50.0528 289.966 50.5414C289.595 51.0301 289.314 51.652 289.122 52.4072C289.107 52.422 289.092 52.4442 289.077 52.4738C289.062 52.5035 289.055 52.5257 289.055 52.5405C289.055 52.5553 289.04 52.5701 289.01 52.5849C288.981 52.5997 288.959 52.6071 288.944 52.6071C288.929 52.6071 288.899 52.6071 288.855 52.6071C288.811 52.6071 288.751 52.6071 288.677 52.6071H288.366C288.278 52.5183 288.233 52.4516 288.233 52.4072Z" fill="black"/>
</g>
<defs>
<clipPath id="clip0_41_462">
<rect width="297" height="95.7043" fill="white"/>
</clipPath>
</defs>
</svg>
